<svg xmlns="http://www.w3.org/2000/svg" xml:space="preserve" width="160.742" height="62.63" viewBox="0 0 160.742 62.63"><path fill="currentColor" d="M2.42 0A2.42 2.42 0 0 0 0 2.42v35.76a2.42 2.42 0 0 0 2.42 2.41H37.3a41.5 41.5 0 0 0 12 9.37v8.96H32.2V51.9h4.54v-3.72h-5.83a2.42 2.42 0 0 0-2.42 2.42v9.62a2.42 2.42 0 0 0 2.42 2.41h19.7a2.42 2.42 0 0 0 2.4-2.41v-8.53a58.6 58.6 0 0 0 14.66 3.89l.5-3.68c-6-.83-11-2.36-15.15-4.26V2.42A2.42 2.42 0 0 0 50.6 0Zm4.12 3.71h39.95L26.51 22.55ZM3.72 6.16 16.8 18.5 3.7 33.73Zm45.6 0v39.56c-11.7-6.5-15.09-16.1-15.28-16.65 0 0-1.14 4.02.83 7.81H5.9l13.61-15.83 5.35 5.04a2.4 2.4 0 0 0 3.31 0zm-7.39 19.6a2.8 2.8 0 1 0 0 5.6 2.8 2.8 0 0 0 0-5.6" style="fill:#fff"/><path d="M122.256 2.588c-1.493 0-2.725 1.168-2.725 2.596s1.232 2.595 2.725 2.595 2.727-1.167 2.727-2.595-1.234-2.596-2.727-2.596m-56.01 1.037v33.23h4.026V26.083l4.152-4.674 11.553 15.448h4.867L76.89 18.617 90.844 3.625h-5.256L70.66 20.111h-.388V3.625Zm64.903 0v33.23h3.828V3.626Zm-27.39 7.983c-6.749 0-11.228 5.322-11.228 12.98s4.414 12.787 11.618 12.787c5.062 0 8.761-2.532 9.93-6.297l-3.7-1.037c-.973 2.596-3.229 3.893-6.23 3.893-4.495 0-7.593-2.904-7.772-8.242h18.092V24.07c0-9.28-5.517-12.462-10.709-12.462m47.769 0c-3.765 0-8.05 1.298-9.997 5.841l3.635 1.3c.844-1.818 2.84-3.766 6.49-3.766 3.521 0 5.258 1.866 5.258 5.062v.13c0 1.85-1.882 1.688-6.426 2.272-4.624.6-9.67 1.623-9.67 7.334 0 4.868 3.765 7.659 8.503 7.659 4.348 0 6.62-2.337 7.398-3.96h.195v3.376h3.828v-16.42c0-7.918-6.034-8.828-9.214-8.828m-31.22.326v24.922h3.83V11.934Zm-16.548 3.115c4.154 0 6.814 3.115 6.814 7.334H96.377c.26-3.878 3.002-7.334 7.383-7.334m53.154 9.28v3.505c0 3.115-2.466 6.166-7.01 6.166-3.05 0-5.257-1.364-5.257-4.025 0-2.92 2.66-3.83 5.646-4.219 1.623-.195 5.972-.649 6.621-1.428" style="font-weight:700;font-size:45.6904px;font-family:Helvetica;-inkscape-font-specification:&quot;Helvetica Bold&quot;;letter-spacing:0;writing-mode:lr-tb;direction:ltr;fill:#fff;fill-opacity:1;stroke-width:17.9883"/></svg>