<svg xmlns="http://www.w3.org/2000/svg" viewBox="0 0 119.64 22.626"><path d="M107.02 14.072c0 2.53 1.751 4.038 3.931 4.038 5.17 0 5.17-8.05 0-8.05-2.18 0-3.93 1.48-3.93 4.012m7.971-6.315 3.15-.336v13.301h-3.096l-.163-1.94c-.753 1.563-2.828 2.317-4.308 2.344-3.93.027-6.838-2.397-6.838-7.054 0-4.578 3.04-6.974 6.92-6.947 1.777 0 3.473.835 4.226 2.153zM98.505 2.696V7.42h3.661v2.828h-3.69v5.788c0 1.265.702 1.885 1.725 1.885.512 0 1.105-.161 1.589-.404l.915 2.8a7.3 7.3 0 0 1-2.72.565c-2.88.108-4.765-1.534-4.765-4.846v-5.788h-2.476V7.421h2.476V3.045ZM79.723 14.072c0 2.53 1.749 4.038 3.93 4.038 5.17 0 5.17-8.05 0-8.05-2.181 0-3.93 1.48-3.93 4.012m7.97-6.315 3.15-.336v13.301h-3.097l-.162-1.94c-.754 1.563-2.827 2.317-4.308 2.344-3.93.027-6.839-2.397-6.839-7.054 0-4.578 3.043-6.974 6.921-6.947 1.776 0 3.472.835 4.226 2.153zm-24.93 6.315c0 2.314 1.67 3.903 3.77 3.903 2.073 0 3.85-1.508 3.85-3.903 0-2.316-1.777-3.878-3.85-3.878-2.1 0-3.77 1.482-3.77 3.878m11.12-11.39v18.04h-3.068l-.218-1.832c-1.022 1.59-2.665 2.128-4.28 2.128-3.905 0-6.84-2.585-6.84-6.946 0-4.578 2.882-6.947 6.76-6.947 1.4 0 3.58.753 4.36 2.127V3.018Zm-20.134 18.04v-6.948c0-2.018-1.104-3.553-3.204-3.553-2.019 0-3.394 1.696-3.394 3.715v6.786h-3.257V7.757l2.935-.337.216 1.804c1.345-1.319 2.692-1.992 4.36-1.992 3.124 0 5.629 2.343 5.629 6.517v6.973zm-22.913-13.3v6.972c0 2.02 1.104 3.555 3.204 3.555 2.02 0 3.393-1.696 3.393-3.716V7.757l3.257-.336v13.3h-2.938l-.212-1.775c-1.372 1.345-2.639 1.992-4.496 1.992-3.178 0-5.492-2.397-5.492-6.516V7.757ZM14.91 14.097c0 2.02 1.212 3.905 3.608 3.905s3.608-1.886 3.608-3.905c0-1.992-1.4-3.931-3.608-3.931-2.37 0-3.608 1.939-3.608 3.93m10.528 0c0 3.824-2.612 6.92-6.92 6.92s-6.893-3.096-6.893-6.92c0-3.795 2.638-6.918 6.866-6.918s6.947 3.123 6.947 6.919M11.01 4.309a3.4 3.4 0 0 0-1.756-.482c-1.132 0-1.993.754-1.993 2.369V7.42h3.232l-.337 2.881H7.26v10.421H3.977v-10.42H1.5V7.42h2.477V6.196C3.977 2.643 6.373 1 9.038 1c.93 0 1.895.243 2.796.7z" style="fill:#fff;stroke-width:1.3333"/></svg>