<svg xmlns="http://www.w3.org/2000/svg" width="1103.84" height="286.67" data-name="Layer 2" viewBox="0 0 1103.84 286.67"><path d="M181.2 81.34h-5.03V52.57c4.85-1.94 8.28-6.67 8.28-12.22 0-7.27-5.89-13.16-13.16-13.16s-13.16 5.89-13.16 13.16c0 5.54 3.43 10.28 8.28 12.22v28.77h-19.23V25.38c4.85-1.94 8.28-6.67 8.28-12.22C155.46 5.89 149.57 0 142.3 0s-13.16 5.89-13.16 13.16c0 5.54 3.43 10.28 8.28 12.22v55.95h-19.23V63.12c4.85-1.94 8.28-6.67 8.28-12.22 0-7.27-5.89-13.16-13.16-13.16s-13.16 5.89-13.16 13.16c0 5.54 3.43 10.28 8.28 12.22v18.21h-5.03c-12.79 0-23.15 10.37-23.15 23.15v5.03H52.53c-1.94-4.85-6.67-8.28-12.22-8.28-7.27 0-13.16 5.89-13.16 13.16s5.89 13.16 13.16 13.16c5.54 0 10.28-3.43 12.22-8.28h27.72v19.23H25.38c-1.94-4.85-6.67-8.28-12.22-8.28-7.27 0-13.16 5.89-13.16 13.16s5.89 13.16 13.16 13.16c5.54 0 10.28-3.43 12.22-8.28h54.91v19.23H63.13c-1.94-4.85-6.67-8.28-12.22-8.28-7.27 0-13.16 5.89-13.16 13.16s5.89 13.16 13.16 13.16c5.54 0 10.28-3.43 12.21-8.28h17.16v5.02c0 12.79 10.37 23.15 23.15 23.15h5.03v28.69c-4.85 1.94-8.28 6.67-8.28 12.21 0 7.27 5.89 13.16 13.16 13.16s13.16-5.89 13.16-13.16c0-5.54-3.43-10.28-8.28-12.21v-28.69h19.23v55.87c-4.85 1.94-8.28 6.67-8.28 12.22 0 7.27 5.89 13.16 13.16 13.16s13.16-5.89 13.16-13.16c0-5.54-3.43-10.28-8.28-12.22v-55.87h19.23v18.12c-4.85 1.94-8.28 6.67-8.28 12.22 0 7.27 5.89 13.16 13.16 13.16s13.16-5.89 13.16-13.16c0-5.54-3.43-10.28-8.28-12.22v-18.12h5.03c12.79 0 23.15-10.37 23.15-23.15v-77.76c0-12.79-10.37-23.15-23.15-23.15zm-33.77 87.59a26.134 26.134 0 0 1-30.71-30.71c1.95-10.27 10.23-18.55 20.5-20.5a26.134 26.134 0 0 1 30.71 30.71c-1.95 10.27-10.23 18.55-20.5 20.5m570.15 36.74q-18.39 0-32.79-8.82c-9.61-5.88-17.18-13.91-22.73-24.09s-8.32-21.73-8.32-34.65 2.77-24.47 8.32-34.65c5.55-10.19 13.12-18.17 22.73-23.97 9.6-5.8 20.62-8.69 33.04-8.69 11.09 0 21.2 2.2 30.3 6.58 9.1 4.39 16.39 10.48 21.86 18.26l-10.93 13.41c-3.15-4.14-6.92-7.78-11.3-10.93a54.8 54.8 0 0 0-14.16-7.33q-7.575-2.61-15.03-2.61c-8.78 0-16.64 2.2-23.6 6.58-6.96 4.39-12.46 10.31-16.52 17.76q-6.09 11.175-6.09 25.59c0 14.415 2.03 18.17 6.09 25.71s9.56 13.46 16.52 17.76c6.95 4.31 14.74 6.46 23.35 6.46 4.97 0 9.85-.78 14.65-2.36 4.8-1.57 9.36-3.85 13.66-6.83s8.28-6.71 11.92-11.18l10.93 13.41c-5.63 7.45-13.17 13.41-22.6 17.88-9.44 4.47-19.21 6.71-29.31 6.71zM888.1 94.14c-3.23-7.95-8.16-13.82-14.78-17.64-6.62-3.81-14.9-5.71-24.84-5.71q-10.425 0-20.49 4.47c-6.71 2.98-12.54 7.08-17.51 12.3a42.5 42.5 0 0 0-6.46 8.77V19.37h-18.63v183.81h18.63v-78.99c0-4.97.99-9.6 2.98-13.91 1.99-4.3 4.72-8.11 8.2-11.43 3.48-3.31 7.62-5.92 12.42-7.82s9.94-2.86 15.4-2.86c6.96-.16 12.75 1.08 17.39 3.73s8.07 6.75 10.31 12.29c2.23 5.55 3.35 12.63 3.35 21.24v77.75h18.88v-78.74c0-12.25-1.62-22.35-4.84-30.3zm37.13-20.62h18.63v129.66h-18.63zm19.63-51.54c-2.48-2.4-5.96-3.6-10.43-3.6s-7.95 1.24-10.43 3.73c-2.48 2.48-3.73 5.8-3.73 9.94q0 6.21 3.6 9.81t10.56 3.6c6.96 0 7.95-1.24 10.43-3.73 2.48-2.48 3.73-5.71 3.73-9.69 0-4.3-1.24-7.66-3.73-10.06m150.77 81.6c-5.46-10.1-12.79-18.05-21.98-23.85s-19.58-8.69-31.17-8.69c-7.95 0-15.49 1.58-22.6 4.72-7.12 3.15-13.17 7.33-18.13 12.54-2.59 2.72-4.69 5.59-6.34 8.6l-.37-23.38h-18.63v184.31h18.88v-77.49c1.58 2.52 3.47 4.97 5.71 7.32 5.13 5.38 11.34 9.73 18.63 13.04 7.28 3.31 14.99 4.97 23.1 4.97 11.59 0 22.02-2.94 31.3-8.82 9.27-5.88 16.56-13.87 21.86-23.97q7.95-15.15 7.95-34.53c0-19.38-2.73-24.67-8.2-34.77zm-16.4 60.11c-3.97 7.45-9.36 13.33-16.15 17.64s-14.58 6.46-23.35 6.46-16.6-2.15-23.47-6.46c-6.87-4.3-12.3-10.19-16.27-17.64s-5.96-15.98-5.96-25.59 1.99-18.13 5.96-25.59c3.97-7.45 9.4-13.29 16.27-17.51s14.7-6.33 23.47-6.33 16.56 2.15 23.35 6.46 12.17 10.18 16.15 17.64c3.97 7.45 5.96 15.98 5.96 25.59s-1.99 17.88-5.96 25.34zm-729.41-54.17c-4.66-9.4-11.05-16.81-19.15-22.24-8.1-5.42-17.35-8.14-27.74-8.14-7.03 0-13.72 1.26-20.06 3.78-6.35 2.52-11.58 5.85-15.71 9.97-.57.57-1.11 1.16-1.63 1.75l-.67-13.21h-34.85v172.19h36.92V190.8c4.28 4.43 9.55 7.95 15.82 10.55s12.84 3.9 19.72 3.9c10.55 0 19.91-2.71 28.09-8.14 8.17-5.42 14.6-12.88 19.26-22.35 4.66-9.48 6.99-20.33 6.99-32.56s-2.33-23.27-6.99-32.67zm-32.22 49.64c-2.29 4.74-5.5 8.45-9.63 11.12-4.13 2.68-8.94 4.01-14.44 4.01s-10.55-1.34-14.67-4.01c-4.13-2.67-7.34-6.38-9.63-11.12s-3.44-10.39-3.44-16.97 1.15-12.07 3.44-16.97c2.29-4.89 5.5-8.64 9.63-11.24q6.195-3.9 14.67-3.9c8.475 0 10.51 1.34 14.56 4.01s7.22 6.42 9.51 11.23 3.44 10.43 3.44 16.85-1.15 12.23-3.44 16.97zm170.83-43.33c-2.75-7.49-6.73-13.99-11.92-19.49-5.2-5.5-11.35-9.78-18.46-12.84s-14.94-4.58-23.5-4.58c-9.02 0-17.31 1.57-24.88 4.7s-14.1 7.57-19.6 13.3-9.78 12.5-12.84 20.29-4.58 16.36-4.58 25.68c0 12.08 2.75 22.81 8.25 32.22 5.5 9.4 13.22 16.82 23.16 22.24 9.94 5.43 21.63 8.14 35.08 8.14q8.25 0 16.62-1.95c5.58-1.3 11.04-3.25 16.39-5.85s10.39-5.96 15.13-10.09l-17.2-24.31c-4.74 3.67-9.14 6.27-13.18 7.8-4.05 1.53-8.68 2.29-13.87 2.29-7.49 0-13.95-1.38-19.38-4.13s-9.56-6.61-12.38-11.58c-1.31-2.29-2.3-4.78-3-7.45h83.6l.23-9.86c.31-8.86-.92-17.04-3.67-24.53m-78.19 7.68c2.14-4.51 5.31-7.95 9.52-10.32 4.2-2.37 9.29-3.56 15.25-3.56 4.28 0 8.1.84 11.47 2.52 3.36 1.68 6.07 4.01 8.14 6.99 2.06 2.98 3.25 6.38 3.55 10.2v.23h-49.96c.52-2.18 1.16-4.24 2.04-6.07zm215.3-22.24q-4.815-11.115-14.22-16.74c-6.27-3.74-13.99-5.62-23.16-5.62-6.73 0-13.15 1.38-19.26 4.13-6.12 2.75-11.35 6.38-15.71 10.89-.78.81-1.47 1.66-2.17 2.5l-.69-15h-34.85v121.75h36.68v-72.91c0-2.9.57-5.58 1.72-8.03a22 22 0 0 1 4.7-6.53c1.98-1.91 4.36-3.36 7.11-4.36 2.75-.99 5.73-1.49 8.94-1.49 4.13-.15 7.6.57 10.43 2.18 2.82 1.6 4.93 4.01 6.3 7.22 1.38 3.21 2.06 7.26 2.06 12.15v71.77h36.92v-74.75c0-10.7-1.6-19.75-4.81-27.17z" style="fill:#fff"/></svg>