<?xml version="1.0" encoding="UTF-8" standalone="no"?>
<svg
   id="Layer_2"
   viewBox="0 0 1247.36 346.36"
   version="1.1"
   sodipodi:docname="signed-konsepto.svg"
   inkscape:version="1.4.4 (dcaf3e7, 2026-05-05)"
   xmlns:inkscape="http://www.inkscape.org/namespaces/inkscape"
   xmlns:sodipodi="http://sodipodi.sourceforge.net/DTD/sodipodi-0.dtd"
   xmlns="http://www.w3.org/2000/svg"
   xmlns:svg="http://www.w3.org/2000/svg">
  <sodipodi:namedview
     id="namedview10"
     pagecolor="#505050"
     bordercolor="#eeeeee"
     borderopacity="1"
     inkscape:showpageshadow="0"
     inkscape:pageopacity="0"
     inkscape:pagecheckerboard="0"
     inkscape:deskcolor="#505050"
     inkscape:zoom="0.15301999"
     inkscape:cx="620.83394"
     inkscape:cy="173.17999"
     inkscape:window-width="1024"
     inkscape:window-height="210"
     inkscape:window-x="0"
     inkscape:window-y="30"
     inkscape:window-maximized="0"
     inkscape:current-layer="Layer_2" />
  <defs
     id="defs1">
    <style
       id="style1">.cls-1{fill:#53be95;}.cls-2{fill:#333;fill-rule:evenodd;}</style>
  </defs>
  <g
     id="Layer_2-2"
     style="fill:#ffffff">
    <g
       id="Icons"
       style="fill:#ffffff">
      <g
         id="g2"
         style="fill:#ffffff">
        <path
           class="cls-1"
           d="M989.61,87.24c71.79,16.44,152.65,11.16,217.76-25.35-4.77-6.18-9.54-12.37-14.31-18.55-15.64,16.96-31.07,34.16-47.57,50.29-14.31,13.99-27.89,26.24-45.52,35.23-.64,.32-5.23,2.4-3.24,1.56-1.97,.81-3.96,1.5-5.98,2.14-1.62,.52-3.27,.9-4.91,1.27-.95,.2-1.94,.38-2.92,.52,2.95-.49-.23-.03-.72,0-1.59,.12-3.18,.12-4.77,.06-.95-.03-1.91-.12-2.83-.23,3.06,.32-.06-.09-.61-.2-1.88-.38-3.73-.98-5.52-1.62-3.06-1.1,2.17,1.04-.81-.38-.92-.43-1.79-.95-2.69-1.45-5.92-3.38-11.73-9.65-16.16-16.16-7.37-10.84-12.54-23-16.94-35.29-2.17-6.07-7.98-10.06-14.54-8.24-5.87,1.62-10.4,8.47-8.24,14.54,8.58,24.13,20.09,49.82,42.17,64.48,15.81,10.46,35.78,10,52.77,2.92,20.55-8.55,37.89-23.24,53.93-38.38,18.21-17.2,34.88-35.95,51.82-54.36,9.05-9.83-2.4-25.23-14.31-18.55-59.51,33.38-134.01,38-199.56,22.98-14.83-3.41-21.13,19.36-6.27,22.77h-.06Z"
           id="path1"
           style="fill:#ffffff" />
        <path
           class="cls-1"
           d="M1200.26,28.45c4.48-1.97,9.13-3.5,13.93-4.45,3.7-.75-2.17,.14,1.3-.17,.98-.09,1.97-.09,2.98-.06,.69,0,3.64,.52,.38-.06,.78,.14,1.56,.38,2.31,.61,1.21,.43,.95,.35-.75-.32,.64,.32,1.24,.72,1.82,1.13-2.69-1.82-.95-.66-.32,0,1.73,1.76-1.56-2.28-.17-.2,.38,.58,.69,1.21,1.01,1.85-1.5-2.98-.4-.92-.12-.12,.49,1.45,.78,2.98,1.04,4.51-.61-3.67,0,.9,0,1.76,.06,1.71,0,3.44-.06,5.14-.09,1.76-.26,3.5-.49,5.23,.4-3.41-.35,2.02-.52,2.92-1.07,5.81-2.6,11.53-4.36,17.17-4.57,14.57,18.24,20.75,22.77,6.27,4.74-15.09,8.61-32.14,4.83-47.83-2.4-9.88-9.45-17.48-19.13-20.49-12.72-3.99-26.91,1.68-38.35,6.76-5.9,2.6-7.23,11.07-4.25,16.16,3.53,6.01,10.26,6.85,16.16,4.25h0v-.06Z"
           id="path2"
           style="fill:#ffffff" />
      </g>
    </g>
    <g
       id="Konsepto"
       style="fill:#ffffff">
      <path
         class="cls-2"
         d="M242.79,152.35c-11.07-11.76-26.07-17.51-44.97-17.25-19.02-.26-33.99,5.52-44.91,17.25-10.95,11.76-16.5,31.04-16.76,57.8,.23,26.94,5.81,46.3,16.76,58.09,10.92,11.79,25.92,17.54,44.91,17.28,18.9,.26,33.87-5.49,44.97-17.28,11.07-11.79,16.73-31.15,16.99-58.09-.26-26.79-5.9-46.07-16.99-57.8Zm-27.72,94.27c-3.67,7.57-9.42,11.33-17.25,11.21-7.8,.12-13.58-3.64-17.25-11.21-3.67-7.6-5.49-19.74-5.46-36.47-.06-16.7,1.79-28.78,5.46-36.27,3.7-7.51,9.45-11.21,17.25-11.1,7.83-.12,13.58,3.55,17.25,11.1,3.67,7.51,5.52,19.59,5.46,36.27,.06,16.7-1.79,28.87-5.46,36.47Z"
         id="path3"
         style="fill:#ffffff" />
      <path
         class="cls-2"
         d="M277.91,282.17h37.54v-98.64c1.79-2.37,4.83-5.46,9.16-9.33,4.34-3.84,9.42-5.95,15.26-6.36,5.66-.17,9.57,1.65,11.76,5.52s3.24,10.92,3.12,21.1v87.71h37.8v-96.96c.12-16.91-2.69-29.51-8.47-37.77-5.75-8.27-15.17-12.4-28.21-12.37-7.95,.2-14.88,1.79-20.72,4.8s-10.61,6.18-14.22,9.57c-3.64,3.38-6.13,5.78-7.43,7.2h-.58l-1.68-18.47h-33.32v144.01h-.03Z"
         id="path4"
         style="fill:#ffffff" />
      <path
         class="cls-2"
         d="M408.56,274.34c2.92,1.71,8.12,3.93,15.61,6.65,7.43,2.75,17.2,4.25,29.25,4.54,17.54-.29,30.2-4.45,38.06-12.48,7.83-8.03,11.68-18.15,11.56-30.35-.29-9.97-3.12-18.21-8.53-24.74-5.38-6.53-11.59-12.05-18.67-16.62-7.08-4.57-13.32-8.93-18.73-13.06-5.38-4.13-8.21-8.79-8.5-13.99,0-3.9,1.53-6.73,4.57-8.55,3.01-1.79,7.49-2.69,13.41-2.66,5.95,.14,11.68,.9,17.11,2.23,5.46,1.36,9.25,2.37,11.47,3.09,.61-9.02,1.36-18.15,2.25-27.43-2.66-.98-7.08-2.17-13.24-3.58-6.13-1.39-13.96-2.17-23.5-2.31-15.52,.12-27.46,3.76-35.81,10.87-8.38,7.17-12.6,17.14-12.69,30.03,.29,9.54,2.98,17.48,8.12,23.84s11.07,11.88,17.83,16.5c6.76,4.65,12.72,9.16,17.83,13.55,5.14,4.39,7.83,9.42,8.12,15.06-.06,5.2-1.53,8.73-4.48,10.58-2.92,1.85-7.17,2.72-12.66,2.6-6.47-.26-12.8-1.56-19.02-3.84-6.21-2.31-10.52-3.99-12.92-5.12l-6.44,25.2h-.03Z"
         id="path5"
         style="fill:#ffffff" />
      <path
         class="cls-2"
         d="M612.4,150.9c-9.86-10.69-22.92-15.98-39.19-15.81-16.39-.06-30.06,6.42-40.98,19.42-10.92,13.01-16.59,32.86-17.02,59.56,.4,25.06,6.16,43.29,17.22,54.65,11.07,11.39,24.94,16.96,41.65,16.79,13.93-.4,25.09-2.31,33.5-5.81,8.38-3.47,13.64-6.13,15.84-7.92l-7.57-24.65c-3.44,1.76-8.12,3.79-14.07,6.04-5.95,2.31-12.75,3.55-20.4,3.76-8.18,.09-14.91-2.66-20.2-8.29-5.32-5.64-8.09-14.65-8.41-27.02h73.18c.2-.81,.52-2.98,.95-6.56,.43-3.55,.66-7.92,.75-13.03-.29-23.41-5.35-40.46-15.23-51.15v.03Zm-59.65,47.25c.35-13.41,2.51-22.86,6.53-28.29,4.02-5.46,8.55-8.06,13.67-7.89,5.32-.29,9.65,2.17,13.03,7.37,3.38,5.17,5.12,14.8,5.23,28.81h-38.47Z"
         id="path6"
         style="fill:#ffffff" />
      <path
         class="cls-2"
         d="M753.75,152.73c-8.58-11.88-19.36-17.74-32.28-17.66-9.88,.46-18.12,3.18-24.71,8.21-6.59,5.06-11.16,9.68-13.73,13.9h-.58l-1.68-19.02h-35.03v208.2h37.54v-66.41c4.36,1.82,8.99,3.21,13.79,4.16,4.8,.95,9.77,1.42,14.83,1.45,15.92,.09,29.02-6.18,39.28-18.79,10.29-12.6,15.58-32.14,15.95-58.52-.32-25.11-4.8-43.61-13.38-55.46v-.06Zm-32.54,94.82c-4.65,7.4-11.68,10.98-21.07,10.81-2.98,0-5.87-.32-8.7-.95-2.86-.66-5.46-1.53-7.86-2.66v-71.76c1.68-3.01,4.57-6.33,8.7-10,4.13-3.64,8.73-5.64,13.76-5.98,7.31-.23,12.83,2.98,16.56,9.65,3.73,6.65,5.61,18.21,5.61,34.65s-2.34,28.9-6.99,36.27v-.03Z"
         id="path7"
         style="fill:#ffffff" />
      <path
         class="cls-2"
         d="M828.52,138.16v-40.34l-37.51,5.61v34.74h-15.43v27.72h15.43v74.56c-.14,16.21,2.57,27.83,8.15,34.85s14.8,10.4,27.69,10.26c9.13-.29,16.47-1.68,22.14-4.1,5.61-2.49,9.57-4.25,11.79-5.4l-3.64-26.88-6.33,2.2c-3.27,1.18-7.05,1.85-11.33,1.99-4.13,0-7.02-1.47-8.64-4.48-1.62-3.01-2.4-7.57-2.31-13.73v-69.25h30.84v-27.72h-30.84v-.03Z"
         id="path8"
         style="fill:#ffffff" />
      <path
         class="cls-2"
         d="M974.98,152.35c-11.07-11.76-26.07-17.51-44.97-17.25-19.02-.26-33.99,5.52-44.91,17.25-10.95,11.76-16.5,31.04-16.76,57.8,.23,26.94,5.81,46.3,16.76,58.09,10.95,11.79,25.89,17.54,44.91,17.28,18.9,.26,33.9-5.49,44.97-17.28s16.73-31.15,16.99-58.09c-.26-26.79-5.9-46.07-16.99-57.8Zm-27.72,94.27c-3.67,7.57-9.42,11.33-17.25,11.21-7.83,.12-13.58-3.64-17.25-11.21-3.7-7.6-5.52-19.74-5.49-36.47-.03-16.7,1.79-28.78,5.49-36.27,3.67-7.51,9.42-11.21,17.25-11.1,7.83-.12,13.58,3.55,17.25,11.1,3.7,7.51,5.49,19.59,5.46,36.27,0,16.7-1.79,28.87-5.46,36.47Z"
         id="path9"
         style="fill:#ffffff" />
      <path
         class="cls-2"
         d="M0,282.17H38.93l.09-89.74s41.91,78.49,51.96,94.85c40.52,65.81,88.52,52.25,120.8,33.09l8.03-14.62c-38.18,10.55-67.25,1.91-83.67-20.2-19.71-26.53-60.78-104.24-60.78-104.24l52.25-83.46h-43.47l-45.23,80.63V97.84H.26l-.26,184.36v-.03Z"
         id="path10"
         style="fill:#ffffff" />
    </g>
  </g>
</svg>
