<svg xmlns="http://www.w3.org/2000/svg" width="800" height="101" viewBox="0 0 800 101"><g fill="#2f393e" style="fill:#fff"><path d="M130.14 25.72c-4.07-2.69-9.14-4.04-15.22-4.04-4.62 0-8.69.83-12.21 2.48-3.52 1.59-6.49 3.76-8.9 6.52-2.35 2.69-4.14 5.8-5.38 9.32a33.3 33.3 0 0 0-1.76 10.76v1.97c0 3.59.59 7.11 1.76 10.56 1.24 3.45 3.04 6.59 5.38 9.42 2.42 2.76 5.42 4.97 9.01 6.62 3.66 1.66 7.9 2.48 12.73 2.48s8.73-.79 12.32-2.38c3.66-1.59 6.66-3.83 9.01-6.73s3.93-6.28 4.76-10.14h-13.25c-.62 2.07-2.04 3.83-4.24 5.28-2.21 1.38-5.07 2.07-8.59 2.07s-6.42-.76-8.69-2.28q-3.42-2.385-5.07-6.42c-.73-1.83-1.2-3.84-1.44-6h42.23v-5.18c0-4.97-1.04-9.59-3.11-13.87-2.07-4.35-5.18-7.83-9.32-10.45h-.02Zm-29.58 20.7c.28-1.58.68-3.03 1.22-4.35 1.17-2.76 2.86-4.86 5.07-6.31s4.9-2.17 8.07-2.17 5.8.69 7.87 2.07c2.14 1.38 3.73 3.35 4.76 5.9.59 1.45.99 3.08 1.24 4.86zM219.5 21.89h-.62c-4.48 0-8.25.97-11.28 2.9-2.97 1.93-5.21 4.83-6.73 8.69-.5 1.25-.91 2.61-1.24 4.06v-13.9h-11.39v56.2h14.39V46.82c0-3.66 1.07-6.56 3.21-8.69 2.21-2.21 5.07-3.31 8.59-3.31s6.14 1.07 8.07 3.21c2 2.14 3 4.93 3 8.38v33.43h14.39V47.65c0-8.56-1.72-14.97-5.18-19.25-3.45-4.35-8.52-6.52-15.22-6.52ZM326.64 25.72c-4.07-2.69-9.14-4.04-15.22-4.04-4.62 0-8.69.83-12.21 2.48-3.52 1.59-6.49 3.76-8.9 6.52-2.35 2.69-4.14 5.8-5.38 9.32a33.3 33.3 0 0 0-1.76 10.76v1.97c0 3.59.59 7.11 1.76 10.56 1.24 3.45 3.04 6.59 5.38 9.42 2.41 2.76 5.42 4.97 9.01 6.62 3.66 1.66 7.9 2.48 12.73 2.48s8.73-.79 12.32-2.38c3.66-1.59 6.66-3.83 9-6.73 2.35-2.9 3.93-6.28 4.76-10.14h-13.25c-.62 2.07-2.04 3.83-4.24 5.28-2.21 1.38-5.07 2.07-8.59 2.07s-6.42-.76-8.69-2.28q-3.42-2.385-5.07-6.42c-.73-1.83-1.2-3.84-1.44-6h42.23v-5.18c0-4.97-1.04-9.59-3.11-13.87-2.07-4.35-5.18-7.83-9.32-10.45h-.01Zm-29.58 20.7c.28-1.58.68-3.03 1.22-4.35 1.17-2.76 2.86-4.86 5.07-6.31s4.9-2.17 8.07-2.17 5.8.69 7.87 2.07c2.14 1.38 3.73 3.35 4.76 5.9.59 1.45.99 3.08 1.24 4.86h-28.24ZM416 21.89h-.62c-4.48 0-8.25.97-11.28 2.9-2.97 1.93-5.21 4.83-6.73 8.69-.5 1.25-.91 2.61-1.24 4.06v-13.9h-11.39v56.2h14.39V46.82c0-3.66 1.07-6.56 3.21-8.69 2.21-2.21 5.07-3.31 8.59-3.31s6.14 1.07 8.07 3.21c2 2.14 3 4.93 3 8.38v33.43h14.39V47.65c0-8.56-1.73-14.97-5.18-19.25-3.45-4.35-8.52-6.52-15.22-6.52ZM576.57 29.13c-2.61 3.13-4.23 7.4-4.86 12.78V23.54h-11.39v56.31h14.39V50.56c0-4.9 1.31-8.63 3.93-11.18q4.035-3.93 11.28-3.93h3.93V22.93h-2.07c-6.69 0-11.77 2.07-15.22 6.21ZM652.55 30.48q-3.93-4.14-9.63-6.42c-3.8-1.59-8.07-2.38-12.83-2.38s-9.04.79-12.83 2.38c-3.8 1.52-7.04 3.66-9.73 6.42-2.62 2.69-4.66 5.8-6.11 9.32-1.38 3.45-2.07 7.11-2.07 10.97v2.17c0 3.73.66 7.31 1.97 10.76 1.38 3.45 3.38 6.56 6 9.32q3.93 4.035 9.63 6.42c3.79 1.59 8.18 2.38 13.15 2.38s9.25-.79 13.04-2.38 7-3.73 9.63-6.42c2.62-2.76 4.59-5.87 5.9-9.32 1.38-3.45 2.07-7.04 2.07-10.76v-2.17c0-3.86-.69-7.52-2.07-10.97-1.38-3.52-3.42-6.62-6.11-9.32zm-8.07 30.43c-1.24 2.62-3.07 4.73-5.49 6.31-2.42 1.52-5.38 2.28-8.9 2.28s-6.49-.76-8.9-2.28c-2.42-1.59-4.28-3.69-5.59-6.31-1.24-2.69-1.86-5.73-1.86-9.11s.66-6.49 1.97-9.11c1.31-2.69 3.17-4.8 5.59-6.31 2.48-1.59 5.42-2.38 8.8-2.38s6.28.79 8.69 2.38c2.48 1.52 4.35 3.62 5.59 6.31 1.31 2.62 1.97 5.66 1.97 9.11s-.62 6.42-1.86 9.11ZM708.52 56.77c0 3.66-1.07 6.56-3.21 8.69q-3.105 3.21-8.07 3.21c-4.965 0-5.94-1-7.87-3-1.93-2.07-2.9-4.83-2.9-8.28V23.54h-14.39v32.6q0 12.63 5.28 19.05c3.59 4.28 8.63 6.42 15.11 6.42h.62c4.35 0 7.97-.97 10.87-2.9s5.07-4.8 6.52-8.59c.4-1.06.74-2.19 1.04-3.39v13.12h11.39V23.54h-14.39zM797.29 39.38c-1.24-3.52-3.04-6.59-5.38-9.21-2.28-2.62-5.04-4.66-8.28-6.11-3.17-1.45-6.76-2.17-10.76-2.17-4.35 0-8.28.97-11.8 2.9-3.52 1.86-6.35 4.73-8.49 8.59-.69 1.29-1.27 2.69-1.76 4.18V23.65h-11.39v76.9h14.39V72.41c2 2.93 4.48 5.17 7.45 6.71 3.52 1.73 7.38 2.59 11.59 2.59s7.63-.72 10.87-2.17q4.86-2.28 8.28-6.21 3.525-4.035 5.28-9.21c1.24-3.52 1.86-7.31 1.86-11.39v-2.17c0-4-.62-7.73-1.86-11.18M782.8 61.01c-1.31 2.69-3.14 4.8-5.49 6.31q-3.42 2.28-8.07 2.28c-2.69 0-5.24-.62-7.66-1.86-2.41-1.24-4.38-3-5.9-5.28s-2.28-5.04-2.28-8.28v-4.14c0-3.38.72-6.28 2.17-8.69 1.52-2.42 3.45-4.24 5.8-5.49 2.41-1.24 5.04-1.86 7.87-1.86q4.665 0 8.07 2.28c2.35 1.45 4.17 3.48 5.49 6.11 1.31 2.62 1.97 5.73 1.97 9.32s-.66 6.56-1.97 9.32zM250.81 4.29l-1.77 10.01v.75h7.04v64.8h14.39V4.29h-19.66" style="fill:#fff"/><circle cx="359" cy="8.69" r="8.23" style="fill:#fff"/><path d="m347.83 23.65-1.9 10.76h7.84v45.44h14.39v-56.2h-20.33M149.41 34.41h.12l-.12-.02zM151.43 23.65l-1.9 10.76h7.74v45.44h14.39v-56.2h-20.23" style="fill:#fff"/><circle cx="163.43" cy="8.69" r="8.23" style="fill:#fff"/><path d="M508.61 52.42h20.86v9.97c-1.51 1.25-3.38 2.17-5.64 3.45-3.8 2.07-8.27 2.63-13.31 2.63-3.8 0-7.21-.59-10.25-1.76-3.04-1.24-5.62-3-7.76-5.28-2.14-2.35-3.8-5.18-4.97-8.49s-1.76-7.07-1.76-11.28c0-3.86.52-7.38 1.55-10.56 1.1-3.17 2.66-5.9 4.66-8.18s4.42-4.04 7.25-5.28q4.35-1.86 9.63-1.86c5.28 0 6.73.62 9.63 1.86 2.97 1.24 5.42 3.04 7.35 5.38.79.93 1.45 1.95 2 3.04h15.51c-.93-3.66-2.44-6.99-4.57-9.97-3.11-4.42-7.21-7.83-12.32-10.25-5.11-2.48-10.97-3.73-17.6-3.73-6.14 0-11.59 1.1-16.35 3.31-4.69 2.14-8.66 5.04-11.9 8.69a39.1 39.1 0 0 0-7.25 12.32 40.5 40.5 0 0 0-2.48 13.97v2.28c0 5.04.83 9.9 2.48 14.59 1.73 4.62 4.24 8.8 7.56 12.52 3.38 3.66 7.52 6.59 12.42 8.8 4.97 2.14 10.7 3.21 17.18 3.21 7.25 0 13.66-1.35 19.25-4.04 5.12-2.82 9.13-5.12 13.25-10.4V52.4h6.31V39.38H510.9l-2.3 13.02v.02ZM26.8 4.22H12.1v31.21H3.15L.85 48.46H12.1v31.32h14.7V48.41h23.9V35.48H26.8zM59.59 30.48h.03v25.67h-.03v23.63h14.7V4.22h-14.7z" style="fill:#fff"/></g></svg>