<svg xmlns="http://www.w3.org/2000/svg" style="display:block;max-width:16rem;margin-bottom:2em" viewBox="0 0 160.8 29.1"><path fill="none" stroke="#fff" stroke-linecap="round" stroke-width="3.27" d="M145.8 12.4h11.4m1.9 9.9h-9.6c-1.9 0-3.8-.5-3.8-3.5V6.2c0-2.2 1.3-3.6 2.8-3.6h10.6M83.6 5.1A8 8 0 0 0 77 2.4c-4.3 0-7 2-7 4.8-.1 4.2 4.5 4.9 7 5.4 3.1.7 7 1.2 7 5 0 3.6-3 5-7 5-4.6 0-6.6-2-7.5-3m65-14.5a8 8 0 0 0-6.8-2.8c-4 0-6.8 2-6.8 5 0 4 4.6 4.8 6.9 5.3 3.3.7 7.2 1.2 7.2 5 0 3.6-3.1 5-7.3 5a9 9 0 0 1-7.2-3m-10.7-17V15c0 6-3.2 7.6-7.4 7.6-3.7 0-7.4-1.6-7.4-7.6V2.6" pathLength="1"/><path fill="#fff" d="M54.62 8.83a.92.92 0 0 0-1.327 0 .94.94 0 0 0 .147 1.448.94.94 0 0 0 1.033 0 .943.943 0 0 0 .147-1.448m-2.011 2.755a2.565 2.565 0 1 1 0-5.13 2.565 2.565 0 0 1 0 5.13m-.779.815a3.471 3.471 0 1 1 1.58-6.76 3.471 3.471 0 0 1-1.58 6.76M39.78 22.92c.09.28.21.65.49.8l.05.02c.5.2 1.82.16 1.82.16h2.42c.21 0 2.03 0 1.98-.2-.22-.98-1.34-1.15-2.2-1.66-.79-.47-1.53-1-1.87-1.92-.18-.47-.08-1.57.23-1.96.22-.3.55-.48.9-.56.39-.08.8-.01 1.18.03.49.05.96.14 1.44.2.93.12 1.86.16 2.8.14a15.3 15.3 0 0 0 4.54-.79c1.02-.34 2.02-.8 2.89-1.45.98-.73.72-.66-.27-.56-1.2.12-2.4.14-3.6.07a7.9 7.9 0 0 1-3.24-.71 8 8 0 0 1-2.12-1.47.44.44 0 0 1 .02-.55c.17-.18.53-.08.64.02a7.8 7.8 0 0 0 4.45 1.76c1.55.08 2.84.01 4.35 0 .24 0 .89.06 1.01-.19a.5.5 0 0 0 .03-.24c-.13-3.68-.4-7.84-4.26-9.6-2.88-1.32-7.2-3.35-9.01-4.2a.65.65 0 0 0-.92.59c0 1.23.06 3 .06 4.6C39.08 2.04 33 .7 27.94.18 19.37-.6 10.14 2.5 4.35 7.82 2 10.04.15 13.2.02 16.41c-.18 4.54 1.09 6.97 3.43 9.48 3.72 4 11.74 4.57 14.99-.18a7.75 7.75 0 0 0 .72-7.4 7.12 7.12 0 0 0-6.09-4.15c-2-.07-4.14.95-4.9 2.8a4.04 4.04 0 0 0 .8 4.27c.42.43.99.79 1.6.65a.9.9 0 0 0 .72-.72c.08-.55-.4-.9-.68-1.31a2.02 2.02 0 0 1 .24-2.53c.55-.54 1.38-.7 2.15-.7.73 0 1.47.14 2.09.5a3.7 3.7 0 0 1 1.66 2.46c.6 2.98-1.82 5.4-5.1 5.59-1.69.1-3.4-.34-4.71-1.4-3.32-2.67-4.14-8.13-.34-11.05 3.6-2.77 8.16-2.05 10.84-.62a13.1 13.1 0 0 1 4.96 5.12c1.33 1.98 1.8 4.75 3.43 6.18.61.52 1.37.5 2.17.5h4.59c.62 0 .47-.42.2-.7-.6-.61-1.48-.75-2.3-.97-1.84-.51-1.65-2.96-1.14-2.96 1.65 0 1.7.05 3.15.03 2.09-.03 2.72-.15 4.36.45a5.43 5.43 0 0 1 2.26 1.96c.28.41.52.81.66 1.2z"/></svg>