<svg xmlns="http://www.w3.org/2000/svg" xml:space="preserve" id="Logo__x26__Claim" x="0" y="0" viewBox="0 0 1000 204"><style id="style1" type="text/css">.st0{fill:#1c1c1b}</style><g id="g12" style="fill:#fff"><g id="g9" style="fill:#fff"><path id="path1" d="M608.9 161.3c0 6.4-2.2 11.8-6.4 15.4s-10.8 5.4-18.6 5.4c-3.4 0-6.2-.2-8.8-.6-2.6-.6-4.8-1.4-7-2.2v-7.8c5 2.6 10.4 4 15.8 4 5 0 9-1.2 12.2-3.6 3-2.6 4.6-5.6 4.6-9.8 0-2.6-.8-4.6-2.6-6.4-1.6-2-4.6-4-9-6.4-4.6-2.8-7.8-5.4-9.8-7.8-1.6-2.8-2.8-5.6-2.8-9.6 0-5.6 2-10.8 6.2-14.4s9.6-5.4 16.4-5.4c3 0 6 .2 8.8.8s5.4 1.6 8.4 3l-3 7c-2-1.2-4.2-2-6.8-2.8-2.6-.6-5-.8-7-.8-4.2 0-7.6 1.2-10.2 3-2.6 2.2-4 5-4 8.8 0 1.6.2 3 .8 4.2.6 1.4 1.4 2.6 2.6 3.4 1.2 1.2 3.4 2.6 6.8 4.6 4.6 2.8 7.6 5 9.2 6.4 1.6 1.6 2.8 3.4 3.6 5 .2 1.8.6 4 .6 6.6" class="st0" style="fill:#fff"/><path id="path2" d="M632.7 175.3c1.6 0 4-.6 6.8-1.4v6.2c-1.2.6-2.6.8-4 1.2-1.6.2-2.8.6-3.6.6-4 0-6.8-.8-9-2.8-2-2-3-4.6-3-8.4 0-2 .2-4.6.8-7l6-28.2h-7.8l.6-3.4 8.8-3.6 6-10.8h4.6l-2.6 11.8h13l-1.4 6h-13l-6.2 28.4c-.6 2.8-.8 4.8-.8 6.2 0 1.6.6 3 1.4 4 .6 1 1.8 1.2 3.4 1.2" class="st0" style="fill:#fff"/><path id="path3" d="M675.3 128.5c2.8 0 5.4.8 7.6 2.2 2.2 1.6 4 4 5.4 6.8h.6l3-7.8h6l-11 51.6h-6.2l1.4-9.8h-.2c-5.6 7.4-11.6 10.8-17.8 10.8-4.2 0-7.6-1.6-10.2-4.6s-3.6-7.4-3.6-12.6c0-6.4 1.2-12.4 3.4-18s5.4-9.8 9-13.2q5.4-5.4 12.6-5.4m-8.8 46.8c3 0 6.2-1.4 9-4.2 3-2.8 5.4-6.8 7.4-11.2 2-4.6 2.8-9.2 2.8-13.8 0-3-.8-5.6-2.6-7.6-1.6-2-4-2.8-6.8-2.8-3 0-6.2 1.4-9 4-2.8 2.8-5 6.4-6.4 11-1.6 4.6-2.6 9.6-2.6 14.6 0 3.6.8 6.2 2.2 7.8 1 1.4 3.2 2.2 6 2.2" class="st0" style="fill:#fff"/><path id="path4" d="M704.3 129.7h7.8l3.6 25.4c.2 2 .6 5.4.8 9.6s.6 7.6.6 10.2h.2c1.2-2.8 2.6-5.6 4-9.6 1.6-3.6 2.8-6 3.6-7.4l15.2-28.4h8.4l-33 60.2c-2.8 5.4-5.6 9-8.8 11.2q-4.2 3-10.2 3c-2.2 0-4.6-.2-6.4-.8v-6.2c2 .6 4 .8 6.2.8 2.6 0 4.8-.8 6.4-2.6 1.6-1.6 3.6-4 5.4-7l3.6-6.4z" class="st0" style="fill:#fff"/><path id="path5" d="M831.8 138.5c0 8.4-1.4 15.8-4.2 22.6-2.8 6.4-6.8 11.8-11.8 15.4s-11 5.4-17.8 5.4c-7.8 0-14.4-2.6-18.8-7-4.6-4.6-6.8-11.2-6.8-19.8 0-8.2 1.4-15.8 4.6-22.6 3-6.8 7-12.2 12.4-15.8s11-5.6 17.8-5.6c7.6 0 13.6 2.6 18 7.4s6.6 11.4 6.6 20m-25.4-20c-5 0-9.2 1.6-13.2 4.8-4 3-6.8 7.6-9 13.2q-3 8.4-3 18.6c0 6.2 1.6 11 4.6 14.6s7.4 5.4 12.4 5.4c4.8 0 9-1.6 13-4.6 4-2.8 6.8-7.4 9-13.2 2.2-5.6 3-12.2 3-18.8 0-6.2-1.4-11-4.6-14.6-2.8-3.6-6.8-5.4-12.2-5.4" class="st0" style="fill:#fff"/><path id="path6" d="M856 182.1c-3 0-5.6-.8-7.8-2.6-2.2-1.6-4-3.6-5.4-6.4h-.6l-.2 1.6c-.2.8-.2 2-.6 3-.2 1.4-2 10.2-5.4 26h-7.8l15.8-74.6h6.4l-1.4 9.8h.2c5.6-7 11.2-10.8 17.4-10.8 4.2 0 7.6 1.6 10.2 4.6 2.6 2.8 3.6 7.4 3.6 13 0 6.4-1.2 12.6-3 18.4-2 5.6-5 9.8-9 13-3.4 3.4-7.6 5-12.4 5m8.8-46.8c-3 0-6.2 1.4-9 4.6-2.8 3-5.6 6.8-7.4 11.2-1.6 4.6-2.8 9-2.8 13.8 0 3.4.8 6.2 2.6 7.8 1.6 1.6 4.2 2.8 7.6 2.8 3 0 6-1.4 8.8-4s4.8-6.2 6.4-10.8 2.6-9.6 2.6-15c-.4-6.8-3.2-10.4-8.8-10.4" class="st0" style="fill:#fff"/><path id="path7" d="M907 182.1c-5.6 0-10.2-1.6-13.6-5-3-3.4-5-8.2-5-14 0-6 1.2-11.6 3.6-17 2.6-5.4 5.4-9.6 9.2-12.6 4-3 7.8-4.6 12.6-4.6s8.4.8 10.8 3c2.6 2 3.6 5 3.6 8.8 0 5.6-2.6 10.2-7.8 13.2-5 3-12.6 4.8-22.2 4.8h-1.6l-.2 3.6c0 4.2.8 7.4 2.8 9.6s5 3.6 9 3.6c2 0 4-.2 6.2-.8 2-.6 4.6-1.6 7.6-3v6.8c-2.8 1.4-5.6 2.6-7.8 2.8-1.8.6-4.4.8-7.2.8m6.4-46.8c-3 0-6.2 1.4-9 4.6-2.8 2.8-5 7-6.4 12.2h.6c7 0 12.6-.8 16.4-2.8 4-2 5.6-4.6 5.6-7.8 0-1.6-.6-3-1.6-4.2-1.2-1.4-3-2-5.6-2" class="st0" style="fill:#fff"/><path id="path8" d="m964.8 180.9 6.8-32.4c.6-3 .8-5.4.8-6.8 0-2-.6-3.6-1.6-4.8-1.2-1.2-2.8-1.6-5.4-1.6-2.8 0-5.4.8-8.2 2.8-2.6 2-5 4.6-7 7.8-2 3.6-3.6 7.6-4.6 12.6l-4.8 22.2H933l11-51.6h6.4l-.8 9.6h.6c3-4 6-6.4 8.8-7.8 2.8-1.6 5.6-2.6 8.8-2.6 4 0 7 1.2 9.6 3 2.2 2.2 3.6 5.4 3.6 9 0 2.6-.2 5.4-1.2 8.4l-6.8 31.6z" class="st0" style="fill:#fff"/><path id="path9" d="M988.2 177.5c0-2.6.6-4.2 2-5.6s3-2 5.4-2c1.4 0 2.6.6 3 1.4.6.8 1.4 2 1.4 3.6 0 2.2-.6 4-2 5.6-1.4 1.4-2.8 2.2-5 2.2-1.4 0-2.6-.6-3.4-1.4-.8-.6-1.4-2.2-1.4-3.8" class="st0" style="fill:#fff"/></g><g id="g11" style="fill:#fff"><path id="path10" d="M195.4 40.7v100.4c0 1.6.6 3.6 2 5-1.4-1.4-3-2-5-2h-134c-1.6 0-3.6.6-5 2 1.4-1.4 2-3 2-5V40.7c0-1.6-.6-3.6-2-5 1.4 1.4 3 2 5 2h133.8c1.6 0 3.6-.6 5-2-1.2 1.2-1.8 3-1.8 5m55.9 88.4v-77c0-28.8-23.4-52.2-52.2-52.2H52.2C23.4-.2 0 23.3 0 52.1v77c0 28.8 23.4 52.2 52.2 52.2H199c28.8 0 52.3-23.4 52.3-52.2" class="st0" style="fill:#fff"/><path id="path11" d="M376.9 122.3c0 2-.8 4-2.2 5.4l-49.4 49.4c-2.6 2.8-6.2 4.2-10.4 4.2H244l92.4-92.4c1.4-1.4 3-2 5-2-2 0-4-.8-5-2l-85-85h77l46.4 46.4c1.4 1.4 2.2 3 2.2 5.4 0-2 .8-4 2.2-5.4L425.6-.1h77l-85.6 85c-1.4 1.4-3 2-5 2 2 0 4 .8 5 2l92.4 92.4h-70.8c-4 0-7.6-1.6-10.4-4.2l-49-49.4c-1.5-1.4-2.3-3.4-2.3-5.4" class="st0" style="fill:#fff"/></g></g></svg>