<svg xmlns="http://www.w3.org/2000/svg" width="310.134" height="96.092" viewBox="0 0 82.056 25.424"><path d="m56.551 45.932-1.089-1.414h-2.52l2.358 3.024-2.52 3.234h2.52l1.251-1.609 1.268 1.61h2.52l-2.52-3.235 2.357-3.024h-2.52zM72.449 50.776h2.194v-3.9q.228-.342.553-.57.341-.244.699-.244.341 0 .553.293.21.276.21.975v3.446h2.195v-3.933q0-1.187-.552-1.837-.537-.65-1.593-.65-.553 0-1.106.357-.552.358-.959.975v-1.17H72.45zm-3.495-3.218q-.309-.179-.732-.309-.422-.13-.926-.13-.943 0-1.593.455-.634.439-.634 1.382 0 .796.292 1.219.31.423.764.601.472.163.927.163.634 0 1.105-.228.488-.243.797-.585v.65h2.194v-3.933q0-1.187-.634-1.837-.617-.65-1.674-.65-.943 0-1.788.373-.845.358-1.577.813l.813 1.138q.488-.341.992-.471.52-.147.747-.147.586 0 .748.293.179.276.179.975zm0 1.056v.65q-.163.18-.406.31-.228.13-.52.13-.342 0-.472-.244-.13-.26-.13-.488t.162-.439q.18-.211.52-.211.358 0 .537.097.195.098.309.195m-7.51 2.162h2.194v-6.258h-2.194zm1.09-7.184 1.56-1.545-1.56-1.56-1.545 1.56zm-16.727 4.063q0 1.024.455 1.772.471.732 1.251 1.122.797.39 1.74.39.829 0 1.511-.26.683-.26 1.122-.797l-.975-1.511q-.26.406-.618.682-.358.26-.878.26-.374 0-.666-.146-.277-.146-.472-.39l3.934-1.447q0-.861-.39-1.528-.374-.682-1.09-1.056-.698-.39-1.64-.39-.944 0-1.691.406-.748.39-1.17 1.138-.423.731-.423 1.755m4.518-1.203-2.487.943q.033-.552.326-1.008.308-.471.975-.471.406 0 .699.146.309.147.487.39m-12.142 1.203q0 1.024.455 1.772.471.732 1.252 1.122.796.39 1.739.39.829 0 1.512-.26.682-.26 1.121-.797l-.975-1.511q-.26.406-.618.682-.357.26-.878.26-.373 0-.666-.146-.276-.146-.471-.39l3.933-1.447q0-.861-.39-1.528-.374-.682-1.089-1.056-.699-.39-1.642-.39-.942 0-1.69.406-.748.39-1.17 1.138-.423.731-.423 1.755m4.519-1.203-2.487.943q.032-.552.325-1.008.309-.471.975-.471.407 0 .7.146.308.147.487.39m-5.17-.91q-.162-.211-.373-.471-.212-.26-.52-.44-.31-.194-.764-.194-.456 0-.927.357-.471.358-.829.943l-.146-1.219h-1.87v6.258h2.195v-3.9q.211-.212.455-.342.244-.147.471-.147.456 0 .65.228.196.211.44.553zm-8.257 5.234v-4.632h1.398v-1.626h-1.365q.065-.439.26-.585t.471-.146q.228 0 .569.195.358.178.845.65l.65-1.626q-.406-.374-.747-.601-.325-.228-.716-.309-.373-.097-.926-.097-.618 0-1.235.292-.602.293-1.008.845-.39.537-.39 1.333v.05h-.716v1.625h.716v4.632z" style="font-style:normal;font-variant:normal;font-weight:400;font-stretch:normal;font-size:11.2889px;line-height:1.25;font-family:&quot;Gnomon*&quot;;-inkscape-font-specification:&quot;Gnomon*, Normal&quot;;font-variant-ligatures:normal;font-variant-caps:normal;font-variant-numeric:normal;font-feature-settings:normal;text-align:center;letter-spacing:0;word-spacing:0;writing-mode:lr-tb;text-anchor:middle;fill:#fff;fill-opacity:1;stroke:none;stroke-width:.264584" transform="translate(-21.905 -34.343)"/><path d="M93.028 34.343c-.77.004-1.537.096-2.289.275a9.44 9.44 0 0 0-5.757 4.1 8.45 8.45 0 0 0-1.247 3.38 7.8 7.8 0 0 0 .4 3.726c.615 1.585 1.88 3 3.52 3.758.736.34 1.578.56 2.471.553a5.06 5.06 0 0 0 2.476-.66 4.1 4.1 0 0 0 1.085-1.08c.27-.391.492-.847.61-1.328.107-.444.127-.915 0-1.356a2 2 0 0 0-.728-1.05c.235.403.258.782.195 1.089a1.9 1.9 0 0 1-.45.86c-.228.26-.507.468-.78.608-.302.156-.59.226-.81.219a2.34 2.34 0 0 1-1.304-.08 2.95 2.95 0 0 1-1.035-.654c-.671-.64-1.018-1.47-1.08-2.14a3.6 3.6 0 0 1 .084-1.635 4.4 4.4 0 0 1 .728-1.444c.63-.836 1.623-1.594 2.822-1.897a5.4 5.4 0 0 1 2.332-.064c.721.139 1.471.431 2.194.908a7.06 7.06 0 0 1 2.925 4.1c.406 1.67.257 3.475-.565 5.212q-.285.602-.635 1.18c-1.96 3.257-5.96 4.907-8.886 5.663-3.778.947-7.749.967-11.196.616a44 44 0 0 1-1.245-.145c-3.584-.47-6.756-1.363-9.18-2.206a52 52 0 0 1-2.468-.931 51 51 0 0 1-1.585-.671c-1.572-.702-2.464-1.238-2.913-1.565h-2.104c3.408 2.31 5.633 3.194 6.163 3.5.719.416 1.437.664 2.352 1.069 2.446 1.083 5.694 2.14 9.415 2.827q.614.115 1.296.219c3.565.546 7.846.74 12.051-.117 4.97-1.048 8.373-2.502 11.416-5.964a10.5 10.5 0 0 0 1.102-1.594c1.393-2.481 1.858-5.273 1.36-7.997-.561-3.156-2.395-5.65-4.47-7.187a10.7 10.7 0 0 0-3.957-1.838 10 10 0 0 0-2.313-.26" style="fill:#fff;fill-opacity:1;fill-rule:nonzero;stroke:none;stroke-width:.264583" transform="translate(-21.905 -34.343)"/><path d="M21.905 39.678c1.008-.4 2.792-.984 5.385-1.482q.697-.136 1.524-.261a35.5 35.5 0 0 1 8.178-.297c.707.06 1.351.136 1.934.22 1.667.24 3.65.771 5.145 1.216q.494.145 1.083.334c1.432.462 2.904 1.05 4.386 1.912 1.46.849 2.511 1.728 3.116 2.302h2.126c-4.519-5.11-8.03-6.763-15.645-7.522-.622-.061-1.31-.106-2.058-.124a32 32 0 0 0-8.468.952q-.837.212-1.531.429c-2.567.797-4.283 1.774-5.175 2.321" style="fill:#fff;fill-rule:nonzero;stroke:none;stroke-width:.865;stroke-linecap:round;stroke-linejoin:round;stroke-miterlimit:4;stroke-dasharray:none;stroke-opacity:1" transform="translate(-21.905 -34.343)"/></svg>