<svg xmlns="http://www.w3.org/2000/svg" xml:space="preserve" width="735.798" height="39.32mm" viewBox="0 0 194.68 39.32"><path d="M25.572 31.29H10.687V8.617h6.01v17.225h8.888v5.448zm8.376 0h-6.01V8.617h6.01zm24.642 0h-6.88l-9.629-15.128V31.29h-5.703V8.617h7.186l.077.128L52.887 23.4V8.617h5.703zM8.21 0A8.19 8.19 0 0 0 0 8.21v22.9a8.19 8.19 0 0 0 8.21 8.21h178.26a8.19 8.19 0 0 0 8.21-8.21V8.21A8.19 8.19 0 0 0 186.47 0Zm.346 3.1H63.32v33.205H8.556A5.41 5.41 0 0 1 3.13 30.88V8.524A5.41 5.41 0 0 1 8.556 3.1m119.352 4.3h.013a12.86 12.86 0 0 1 9.08 3.606 12.63 12.63 0 0 1 3.862 8.926 12.47 12.47 0 0 1-2.52 7.455 12.7 12.7 0 0 1-6.509 4.514l-1.7-5.217a7.1 7.1 0 0 0 3.696-2.532 7 7 0 0 0 1.431-4.22 7.2 7.2 0 0 0-2.237-4.949 7.33 7.33 0 0 0-5.077-2.033 7.35 7.35 0 0 0-5.077 2.033 7.28 7.28 0 0 0-2.238 4.95 7.13 7.13 0 0 0 1.394 4.168 7.16 7.16 0 0 0 3.606 2.558l-1.726 5.217a12.62 12.62 0 0 1-7.034-5.358 12.45 12.45 0 0 1-1.738-8.62 12.47 12.47 0 0 1 4.411-7.634 12.75 12.75 0 0 1 8.363-2.864m-24.796.19c4.143 0 7.136 1.01 9.322 2.941l.141.14-3.849 4.093-.128-.128a7.1 7.1 0 0 0-2.506-1.624 7 7 0 0 0-2.954-.448 6.9 6.9 0 0 0-2.737.473 6.7 6.7 0 0 0-2.314 1.522 6.8 6.8 0 0 0-1.497 2.327 6.6 6.6 0 0 0-.422 2.724 6.5 6.5 0 0 0 .448 2.737c.345.87.87 1.663 1.535 2.327a7 7 0 0 0 2.352 1.522 7.1 7.1 0 0 0 2.775.448c1.65.013 3.274-.358 4.745-1.087V22.04h-4.732l-.026.014v-4.86h9.54v11.97l-.077.077a20.4 20.4 0 0 1-9.706 2.16c-7.532 0-12.583-4.808-12.583-11.905 0-7.098 5.128-11.906 12.673-11.906m-26.51.65h5.6l.167.166 9.604 22.38h-6.56l-1.778-4.451h-8.658l-1.7 4.45h-6.445Zm95.925.04h5.614l.09.128 9.68 22.404h-6.56l-1.777-4.437h-8.67l-1.701 4.437h-6.446zm-29.451.006h8.964c5.92 0 8.887 2.276 8.887 6.88a5.9 5.9 0 0 1-1.266 4.054h.013a6.07 6.07 0 0 1-3.67 2.2l5.92 9.398h-6.56l-4.833-8.9h-1.995v8.9h-5.46zm5.524 4.22.038 5.192h2.557c1.79 0 4.093-.256 4.093-2.532s-2.392-2.66-3.786-2.66zM79.312 14.57l-2.66 6.97h5.27zm95.952.002-2.66 6.969h5.256z" style="fill:#fff;stroke-width:1.2788"/></svg>