<svg xmlns="http://www.w3.org/2000/svg" xml:space="preserve" id="Capa_1" x="0" y="0" viewBox="0 0 118 42"><style>.st0{fill:#007099}</style><path d="M47.9 1.4c4.7 0 8.5 3.8 8.5 8.5s-3.8 8.4-8.5 8.4-8.5-3.8-8.5-8.4c0-4.7 3.8-8.5 8.5-8.5m0 14.1c3.1 0 5.5-2.6 5.5-5.6 0-3.1-2.4-5.7-5.5-5.7s-5.5 2.5-5.5 5.7c0 2.9 2.4 5.6 5.5 5.6M57.6 5.7h2.7v1.4c.9-1.2 2.4-1.9 4-1.8 4 0 6.1 3.4 6.1 6.5 0 3.6-2.7 6.5-6.1 6.5-2.1 0-3-.8-3.8-1.6V22h-2.9zm6.3 10c1.6 0 3.6-1.3 3.6-3.8C67.5 9.6 65.8 8 64 8s-3.6 1.5-3.6 3.8c0 2.7 2.1 3.9 3.5 3.9M74.6 13.1c.1.8 1.3 2.5 3.4 2.5 1.3 0 2.3-.5 2.8-1.6h3.1c-.7 2.2-3 4.2-5.9 4.2-3.5 0-6.4-2.8-6.4-6.4v-.1c0-3.4 2.7-6.6 6.4-6.6 3.9 0 6.3 3.3 6.3 6.4 0 .5-.1 1-.2 1.5zm6.6-2.3c-.3-2-1.8-2.9-3.3-2.9-1.1 0-2.9.6-3.4 2.9zM85.3 5.7H88v1.1c.5-.5 1.5-1.5 3.3-1.5 1.1 0 2.7.5 3.7 1.7 1.1 1.3 1.1 3.4 1.1 4.3v6.6h-2.9v-6c0-1 0-3.9-2.5-3.9-.8 0-1.5.4-2 1.1s-.5 2-.5 3.1V18h-2.9zM41.3 23.6h3.4l6.7 11.8V23.6h3v16.3H51l-6.8-11.8v11.8h-3V23.6zM59.4 35.1c.1.8 1.3 2.5 3.4 2.5 1.3 0 2.3-.6 2.8-1.6h3.1c-.7 2.2-3 4.2-5.9 4.2-3.5 0-6.4-2.8-6.4-6.4v-.1c0-3.5 2.7-6.6 6.4-6.6 3.9 0 6.3 3.3 6.3 6.4 0 .5-.1 1-.2 1.5zm6.7-2.4c-.3-2-1.8-2.9-3.3-2.9-1.1 0-2.9.6-3.4 2.9zM70.8 23.6h2.9v5.2c1-1 2.4-1.5 3.8-1.5 3.7 0 6.1 3.2 6.1 6.5 0 2.4-1.6 6.5-6.1 6.5-2.3 0-3.4-1.1-4.1-1.9v1.5h-2.7zm6.4 14c1.9 0 3.5-1.5 3.5-3.8S79 30 77.1 30c-2.2 0-3.6 1.9-3.6 3.7 0 2.6 2 3.9 3.7 3.9M96.2 27.7v12.2h-2.7v-1.2c-.5.7-1.3 1.6-3.1 1.6-2.2 0-3.5-1.1-4.1-1.9-.9-1.3-.9-3.3-.9-4.3v-6.4h2.9v6.2c0 1 0 3.7 2.5 3.7 1.8 0 2.5-1.7 2.5-3.7v-6.2zM98.5 23.6h2.9v16.3h-2.9zM116 39.9h-2.7v-1.5c-.9 1.1-2.7 1.9-4.3 1.9-3.1 0-5.9-2.5-5.9-6.6 0-3.7 2.7-6.4 6.1-6.4 2.5 0 4 1.8 4 2v-1.5h2.7v12.1zm-6.3-10c-2.4 0-3.6 2.1-3.6 3.9 0 2.1 1.5 3.8 3.6 3.8 2 0 3.6-1.6 3.6-3.8-.1-2.6-1.9-3.9-3.6-3.9M11.6 40.3h20.7c.1 0 .2 0 .3-.1s.2-.2.2-.4V20.5c-8.4 7.7-19.2 12.2-30.5 12.7 1.2 4.2 5 7.1 9.3 7.1M.1 33.3" class="st0"/><path d="M32.3 1.3c-4.5.3-8.2 3.6-9 8 0 .2-.2.4-.5.4-.1 0-.2 0-.2-.1C18 6.8 12 8.1 9.2 12.7c-1.6 2.5-1.9 5.5-1 8.3v.2c0 .2-.1.4-.3.5-4.6 1.9-7 6.9-5.6 11.7C19 32.3 32.2 18.7 32.8 2c0-.5-.2-.7-.5-.7" class="st0"/></svg>