<?xml version="1.0" encoding="utf-8"?>
<!-- Generator: Adobe Illustrator 22.1.0, SVG Export Plug-In . SVG Version: 6.00 Build 0)  -->
<svg version="1.1" id="Logo__x26__Claim" xmlns="http://www.w3.org/2000/svg" xmlns:xlink="http://www.w3.org/1999/xlink" x="0px"
	 y="0px" viewBox="0 0 1000 204" style="enable-background:new 0 0 1000 204;" xml:space="preserve">
<style type="text/css">
	.st0{fill:#1C1C1B;}
	.st1{fill:#284B73;}
	.st2{fill:#FFFFFF;}
</style>
<g>
	<g>
		<path class="st0" d="M608.9,161.3c0,6.4-2.2,11.8-6.4,15.4c-4.2,3.6-10.8,5.4-18.6,5.4c-3.4,0-6.2-0.2-8.8-0.6
			c-2.6-0.6-4.8-1.4-7-2.2v-7.8c5,2.6,10.4,4,15.8,4c5,0,9-1.2,12.2-3.6c3-2.6,4.6-5.6,4.6-9.8c0-2.6-0.8-4.6-2.6-6.4
			c-1.6-2-4.6-4-9-6.4c-4.6-2.8-7.8-5.4-9.8-7.8c-1.6-2.8-2.8-5.6-2.8-9.6c0-5.6,2-10.8,6.2-14.4c4.2-3.6,9.6-5.4,16.4-5.4
			c3,0,6,0.2,8.8,0.8c2.8,0.6,5.4,1.6,8.4,3l-3,7c-2-1.2-4.2-2-6.8-2.8c-2.6-0.6-5-0.8-7-0.8c-4.2,0-7.6,1.2-10.2,3
			c-2.6,2.2-4,5-4,8.8c0,1.6,0.2,3,0.8,4.2c0.6,1.4,1.4,2.6,2.6,3.4c1.2,1.2,3.4,2.6,6.8,4.6c4.6,2.8,7.6,5,9.2,6.4
			c1.6,1.6,2.8,3.4,3.6,5C608.5,156.5,608.9,158.7,608.9,161.3z"/>
		<path class="st0" d="M632.7,175.3c1.6,0,4-0.6,6.8-1.4v6.2c-1.2,0.6-2.6,0.8-4,1.2c-1.6,0.2-2.8,0.6-3.6,0.6c-4,0-6.8-0.8-9-2.8
			c-2-2-3-4.6-3-8.4c0-2,0.2-4.6,0.8-7l6-28.2h-7.8l0.6-3.4l8.8-3.6l6-10.8h4.6l-2.6,11.8h13l-1.4,6h-13l-6.2,28.4
			c-0.6,2.8-0.8,4.8-0.8,6.2c0,1.6,0.6,3,1.4,4C629.9,175.1,631.1,175.3,632.7,175.3z"/>
		<path class="st0" d="M675.3,128.5c2.8,0,5.4,0.8,7.6,2.2c2.2,1.6,4,4,5.4,6.8h0.6l3-7.8h6l-11,51.6h-6.2l1.4-9.8h-0.2
			c-5.6,7.4-11.6,10.8-17.8,10.8c-4.2,0-7.6-1.6-10.2-4.6c-2.6-3-3.6-7.4-3.6-12.6c0-6.4,1.2-12.4,3.4-18c2.2-5.6,5.4-9.8,9-13.2
			C666.3,130.3,670.5,128.5,675.3,128.5z M666.5,175.3c3,0,6.2-1.4,9-4.2c3-2.8,5.4-6.8,7.4-11.2c2-4.6,2.8-9.2,2.8-13.8
			c0-3-0.8-5.6-2.6-7.6c-1.6-2-4-2.8-6.8-2.8c-3,0-6.2,1.4-9,4c-2.8,2.8-5,6.4-6.4,11c-1.6,4.6-2.6,9.6-2.6,14.6
			c0,3.6,0.8,6.2,2.2,7.8C661.5,174.5,663.7,175.3,666.5,175.3z"/>
		<path class="st0" d="M704.3,129.7h7.8l3.6,25.4c0.2,2,0.6,5.4,0.8,9.6c0.2,4.2,0.6,7.6,0.6,10.2h0.2c1.2-2.8,2.6-5.6,4-9.6
			c1.6-3.6,2.8-6,3.6-7.4l15.2-28.4h8.4l-33,60.2c-2.8,5.4-5.6,9-8.8,11.2c-2.8,2-6.2,3-10.2,3c-2.2,0-4.6-0.2-6.4-0.8v-6.2
			c2,0.6,4,0.8,6.2,0.8c2.6,0,4.8-0.8,6.4-2.6c1.6-1.6,3.6-4,5.4-7l3.6-6.4L704.3,129.7z"/>
		<path class="st0" d="M831.8,138.5c0,8.4-1.4,15.8-4.2,22.6c-2.8,6.4-6.8,11.8-11.8,15.4c-5,3.6-11,5.4-17.8,5.4
			c-7.8,0-14.4-2.6-18.8-7c-4.6-4.6-6.8-11.2-6.8-19.8c0-8.2,1.4-15.8,4.6-22.6c3-6.8,7-12.2,12.4-15.8s11-5.6,17.8-5.6
			c7.6,0,13.6,2.6,18,7.4C829.6,123.3,831.8,129.9,831.8,138.5z M806.4,118.5c-5,0-9.2,1.6-13.2,4.8c-4,3-6.8,7.6-9,13.2
			c-2,5.6-3,11.8-3,18.6c0,6.2,1.6,11,4.6,14.6c3,3.6,7.4,5.4,12.4,5.4c4.8,0,9-1.6,13-4.6c4-2.8,6.8-7.4,9-13.2
			c2.2-5.6,3-12.2,3-18.8c0-6.2-1.4-11-4.6-14.6C815.8,120.3,811.8,118.5,806.4,118.5z"/>
		<path class="st0" d="M856,182.1c-3,0-5.6-0.8-7.8-2.6c-2.2-1.6-4-3.6-5.4-6.4h-0.6l-0.2,1.6c-0.2,0.8-0.2,2-0.6,3
			c-0.2,1.4-2,10.2-5.4,26h-7.8l15.8-74.6h6.4l-1.4,9.8h0.2c5.6-7,11.2-10.8,17.4-10.8c4.2,0,7.6,1.6,10.2,4.6
			c2.6,2.8,3.6,7.4,3.6,13c0,6.4-1.2,12.6-3,18.4c-2,5.6-5,9.8-9,13C865,180.5,860.8,182.1,856,182.1z M864.8,135.3
			c-3,0-6.2,1.4-9,4.6c-2.8,3-5.6,6.8-7.4,11.2c-1.6,4.6-2.8,9-2.8,13.8c0,3.4,0.8,6.2,2.6,7.8c1.6,1.6,4.2,2.8,7.6,2.8
			c3,0,6-1.4,8.8-4c2.8-2.6,4.8-6.2,6.4-10.8c1.6-4.6,2.6-9.6,2.6-15C873.2,138.9,870.4,135.3,864.8,135.3z"/>
		<path class="st0" d="M907,182.1c-5.6,0-10.2-1.6-13.6-5c-3-3.4-5-8.2-5-14c0-6,1.2-11.6,3.6-17c2.6-5.4,5.4-9.6,9.2-12.6
			c4-3,7.8-4.6,12.6-4.6c4.8,0,8.4,0.8,10.8,3c2.6,2,3.6,5,3.6,8.8c0,5.6-2.6,10.2-7.8,13.2c-5,3-12.6,4.8-22.2,4.8h-1.6l-0.2,3.6
			c0,4.2,0.8,7.4,2.8,9.6c2,2.2,5,3.6,9,3.6c2,0,4-0.2,6.2-0.8c2-0.6,4.6-1.6,7.6-3v6.8c-2.8,1.4-5.6,2.6-7.8,2.8
			C912.4,181.9,909.8,182.1,907,182.1z M913.4,135.3c-3,0-6.2,1.4-9,4.6c-2.8,2.8-5,7-6.4,12.2h0.6c7,0,12.6-0.8,16.4-2.8
			c4-2,5.6-4.6,5.6-7.8c0-1.6-0.6-3-1.6-4.2C917.8,135.9,916,135.3,913.4,135.3z"/>
		<path class="st0" d="M964.8,180.9l6.8-32.4c0.6-3,0.8-5.4,0.8-6.8c0-2-0.6-3.6-1.6-4.8c-1.2-1.2-2.8-1.6-5.4-1.6
			c-2.8,0-5.4,0.8-8.2,2.8c-2.6,2-5,4.6-7,7.8c-2,3.6-3.6,7.6-4.6,12.6l-4.8,22.2H933l11-51.6h6.4l-0.8,9.6h0.6c3-4,6-6.4,8.8-7.8
			c2.8-1.6,5.6-2.6,8.8-2.6c4,0,7,1.2,9.6,3c2.2,2.2,3.6,5.4,3.6,9c0,2.6-0.2,5.4-1.2,8.4l-6.8,31.6L964.8,180.9L964.8,180.9z"/>
		<path class="st0" d="M988.2,177.5c0-2.6,0.6-4.2,2-5.6c1.4-1.4,3-2,5.4-2c1.4,0,2.6,0.6,3,1.4c0.6,0.8,1.4,2,1.4,3.6
			c0,2.2-0.6,4-2,5.6c-1.4,1.4-2.8,2.2-5,2.2c-1.4,0-2.6-0.6-3.4-1.4C988.8,180.7,988.2,179.1,988.2,177.5z"/>
	</g>
	<g>
		<path class="st0" d="M195.4,40.7v100.4c0,1.6,0.6,3.6,2,5c-1.4-1.4-3-2-5-2h-134c-1.6,0-3.6,0.6-5,2c1.4-1.4,2-3,2-5V40.7
			c0-1.6-0.6-3.6-2-5c1.4,1.4,3,2,5,2h133.8c1.6,0,3.6-0.6,5-2C196,36.9,195.4,38.7,195.4,40.7 M251.3,129.1v-77
			c0-28.8-23.4-52.2-52.2-52.2H52.2C23.4-0.2,0,23.3,0,52.1v77c0,28.8,23.4,52.2,52.2,52.2H199C227.8,181.3,251.3,157.9,251.3,129.1
			"/>
		<path class="st0" d="M376.9,122.3c0,2-0.8,4-2.2,5.4l-49.4,49.4c-2.6,2.8-6.2,4.2-10.4,4.2H244l92.4-92.4c1.4-1.4,3-2,5-2
			c-2,0-4-0.8-5-2l-85-85h77l46.4,46.4c1.4,1.4,2.2,3,2.2,5.4c0-2,0.8-4,2.2-5.4l46.4-46.4h77l-85.6,85c-1.4,1.4-3,2-5,2
			c2,0,4,0.8,5,2l92.4,92.4h-70.8c-4,0-7.6-1.6-10.4-4.2l-49-49.4C377.7,126.3,376.9,124.3,376.9,122.3"/>
	</g>
</g>
</svg>
