<svg xmlns="http://www.w3.org/2000/svg" width="294" height="71" fill="none" viewBox="0 0 294 71"><path d="M257.727 14.886h6.214c.32 0 .514.03.508.44-.018 1.892-.012 3.79 0 5.683 0 .324-.115.422-.424.416-1.98-.012-3.96-.006-5.941 0-.26 0-.43-.03-.43-.361.012-1.984.006-3.962.012-5.946 0-.049.025-.098.061-.226zm-48.382 6.533c-.987 0-1.981-.012-2.968 0-.315 0-.424-.098-.424-.422q.018-2.841 0-5.683c0-.361.134-.44.461-.44q2.943.018 5.886 0c.357 0 .485.103.485.477a335 335 0 0 0 0 5.578c0 .41-.152.502-.521.496-.975-.018-1.944-.006-2.919-.006m48.176 5.327h7.037v29.532h-7.037zM212.9 56.284h-7.08V26.74h7.08zM48.622 45.012c4.76 8.32 9.495 16.606 14.268 24.951-.188.025-.315.05-.436.05-3.525 0-7.056 0-10.58.005-.315 0-.497-.091-.66-.373-2.72-4.776-5.451-9.54-8.164-14.316a.75.75 0 0 1-.012-.612 1825 1825 0 0 1 5.414-9.479c.036-.061.085-.11.176-.226zm-31.48 25.007c4.802-8.402 9.538-16.68 14.316-25.044.74 1.286 1.43 2.48 2.114 3.674 1.139 1.99 2.265 3.986 3.416 5.97.175.3.163.508-.006.808-2.69 4.69-5.372 9.38-8.043 14.083-.218.38-.448.52-.89.52-3.404-.024-6.813-.011-10.217-.011h-.678zM292.55 26.293c-.418 1.892-.818 3.723-1.236 5.621-.206-.067-.381-.122-.551-.19-2.792-1.029-5.638-1.488-8.593-.912-.34.067-.661.208-.988.33-2.259.87-2.034 3.815-.569 4.758 1.133.729 2.38 1.286 3.604 1.856 1.732.802 3.536 1.463 5.238 2.332 3.391 1.74 4.754 4.666 4.512 8.42-.255 3.857-2.41 6.454-6.365 7.476-4.815 1.243-9.605.998-14.329-.57a42 42 0 0 1-.933-.324c-.06-.024-.121-.067-.23-.122.388-1.892.769-3.79 1.169-5.756.594.202 1.145.392 1.696.588 2.901 1.022 5.874 1.414 8.927 1.04.46-.054.926-.152 1.368-.305 1.95-.674 2.501-3.031 1.072-4.55-.811-.863-1.859-1.347-2.907-1.806-1.944-.851-3.93-1.605-5.838-2.523-1.895-.912-3.422-2.26-4.257-4.286-1.89-4.586.175-9.595 4.736-11.463 2.204-.906 4.511-1.09 6.855-1.016 2.592.08 5.093.594 7.625 1.408zm-104.262 1.512h9.084v6.001h-9.036V56.26h-7.122c-.012-.196-.03-.38-.03-.564V26.464c0-2.265.327-4.476 1.241-6.57 1.302-2.994 3.507-4.966 6.626-5.866 2.876-.832 5.789-.881 8.727-.392.103.019.199.043.302.074.031.006.061.037.128.086-.176 1.959-.352 3.943-.515 5.847-1.29-.037-2.52-.159-3.743-.092-2.029.11-3.809.796-4.687 2.842a13.2 13.2 0 0 0-.818 2.755c-.151.833-.109 1.702-.157 2.664zm60.476 28.473h-7.14v-.661c0-5.095.042-10.183-.024-15.277a25.6 25.6 0 0 0-.533-4.85c-.503-2.437-2.011-3.968-4.518-4.305-2.289-.312-4.542-.214-6.686.778-.351.165-.466.367-.466.76.012 7.55.006 15.099.012 22.649q0 .93-.951.93h-6.214v-.667c0-9.111 0-18.222-.012-27.334 0-.453.139-.698.527-.9 2.108-1.096 4.367-1.714 6.692-2.1 2.998-.502 6.008-.692 9.03-.27 2.87.399 5.438 1.458 7.364 3.748 1.502 1.782 2.253 3.913 2.55 6.184a41 41 0 0 1 .357 4.93c.042 5.229.018 10.464.018 15.693v.692zM31.452 14.99c.594 1.035 1.133 1.971 1.666 2.908 1.296 2.266 2.586 4.531 3.888 6.785.157.269.145.459 0 .716-4.627 8.077-9.248 16.159-13.875 24.242a10719 10719 0 0 0-11.379 19.924c-.188.331-.388.46-.77.454-3.457-.019-6.915-.013-10.38-.013h-.605c10.501-18.375 20.954-36.66 31.456-55.022Zm133.719 11.615v-11.31c2.278-.281 4.53-.563 6.862-.85v40.014c0 .368-.03.6-.466.71-4.47 1.164-8.994 1.868-13.614 1.44-4.3-.398-7.934-2.15-10.496-5.78-1.895-2.695-2.761-5.75-2.895-9.038-.133-3.38.303-6.662 1.781-9.73 2.289-4.752 6.135-7.072 11.319-7.256 2.525-.092 4.893.496 7.14 1.635.091.043.182.086.363.165zm-.054 23.599c.03-.104.036-.116.036-.135 0-5.707.012-11.407 0-17.114 0-.19-.181-.453-.351-.557-1.623-.968-3.361-1.574-5.269-1.63-3.621-.11-5.983 1.428-7.176 4.875-1.048 3.03-1.09 6.142-.164 9.21.642 2.136 1.926 3.838 3.906 4.922 1.206.655 2.514.913 3.864.931 1.738.024 3.464-.116 5.154-.508zm-23.304 6.099h-.575c-2.241 0-4.488-.007-6.729.006-.369 0-.539-.104-.666-.472-.854-2.486-1.744-4.96-2.604-7.44-.109-.312-.242-.434-.581-.434q-8.03.018-16.067 0c-.327 0-.473.092-.588.422a524 524 0 0 1-2.586 7.501c-.06.166-.278.392-.43.392-2.343.025-4.693.012-7.043.006-.03 0-.067-.018-.157-.049.26-.76.514-1.518.775-2.271 4.366-12.4 8.981-24.695 14.504-36.63.164-.348.345-.49.739-.483 1.98.018 3.967.018 5.947 0 .351 0 .521.123.666.435 3.531 7.654 6.729 15.442 9.684 23.341 1.871 5.003 3.67 10.036 5.499 15.057.067.178.121.355.206.612zm-25.866-14.316h13.372l-6.559-17.25h-.278zM80.022 70.018h-.557q-5.186-.001-10.38.006c-.375 0-.587-.097-.781-.44-6.286-11.022-12.59-22.038-18.89-33.053A68686 68686 0 0 1 28.892.612c-.091-.159-.17-.33-.297-.575h.594c3.44 0 6.885.006 10.325-.012.4 0 .618.116.818.465q7.294 12.793 14.607 25.576l13.79 24.113q5.551 9.71 11.095 19.417c.06.104.103.214.2.41z" style="fill:#fff"/></svg>