<svg xmlns="http://www.w3.org/2000/svg" width="148" height="32" fill="none" viewBox="0 0 148 32"><path d="M16 0C7.163 0 0 7.163 0 16s7.163 16 16 16 16-7.163 16-16S24.837 0 16 0m-1.75 6.285c4.386 0 7.941 3.549 7.941 7.926a1.17 1.17 0 0 1-1.171 1.17 1.17 1.17 0 0 1-1.17-1.17 5.593 5.593 0 0 0-5.6-5.588 1.17 1.17 0 0 1-1.172-1.168 1.173 1.173 0 0 1 1.172-1.17m-.02 3.578a1.17 1.17 0 0 1 0 2.34 5.593 5.593 0 0 0-5.597 5.586 1.17 1.17 0 0 1-1.172 1.17 1.17 1.17 0 0 1-1.172-1.17c0-4.377 3.555-7.926 7.941-7.926m10.313 3.18h.002a1.17 1.17 0 0 1 1.172 1.17c0 4.377-3.557 7.926-7.944 7.926a1.17 1.17 0 1 1 0-2.34 5.593 5.593 0 0 0 5.6-5.586c0-.646.524-1.17 1.17-1.17M11 16.617a1.17 1.17 0 0 1 1.172 1.17 5.593 5.593 0 0 0 5.598 5.586 1.17 1.17 0 0 1 1.171 1.17 1.17 1.17 0 0 1-1.171 1.17c-4.386 0-7.942-3.55-7.942-7.926 0-.646.525-1.17 1.172-1.17" style="fill:#fff"/><path fill="currentColor" d="M56.285 18.145H44.999q.2 1.77 1.286 2.828 1.086 1.029 2.857 1.029 1.171 0 2.114-.572a3.2 3.2 0 0 0 1.343-1.543h3.429a6.96 6.96 0 0 1-2.572 3.657q-1.857 1.372-4.4 1.372-3.315 0-5.371-2.2-2.029-2.2-2.029-5.571 0-3.286 2.057-5.515t5.315-2.228q3.256 0 5.257 2.2 2.028 2.171 2.028 5.485zm-7.257-5.972q-1.6 0-2.657.943-1.057.944-1.315 2.514h7.886q-.229-1.571-1.257-2.514-1.03-.943-2.657-.943m9.625 7.972v-17h3.4v17.057q0 1.142 1.257 1.142l.6-.028v3.229a6 6 0 0 1-1.028.085q-2.2 0-3.229-1.114-1-1.115-1-3.371m21.092-2H68.459q.2 1.77 1.285 2.828 1.087 1.029 2.858 1.029 1.17 0 2.114-.572a3.2 3.2 0 0 0 1.343-1.543h3.428a6.96 6.96 0 0 1-2.571 3.657q-1.857 1.372-4.4 1.372-3.314 0-5.372-2.2-2.028-2.2-2.028-5.571 0-3.286 2.057-5.515t5.314-2.228 5.258 2.2q2.028 2.171 2.028 5.485zm-7.258-5.972q-1.6 0-2.657.943-1.057.944-1.314 2.514h7.886q-.23-1.571-1.258-2.514-1.027-.943-2.657-.943m22.597 3.886v8.514h-3.4v-8.886q0-3.37-2.8-3.371-1.515 0-2.428.971-.886.972-.886 2.657v8.63h-3.4V9.743h3.143v1.972q.543-1.001 1.657-1.657 1.115-.657 2.771-.657 3.087 0 4.457 2.343 1.886-2.343 5.03-2.343 2.6 0 3.999 1.628 1.4 1.6 1.4 4.229v9.314h-3.4v-8.886q0-3.37-2.8-3.371-1.543 0-2.457 1-.886.972-.886 2.743m26.452 2.085H110.25q.2 1.772 1.286 2.83 1.086 1.028 2.857 1.028 1.172 0 2.114-.572.944-.57 1.343-1.543h3.429a6.96 6.96 0 0 1-2.572 3.657q-1.856 1.372-4.4 1.372-3.314 0-5.371-2.2-2.029-2.2-2.029-5.571 0-3.286 2.058-5.515 2.056-2.228 5.314-2.228t5.257 2.2q2.028 2.171 2.029 5.485zm-7.257-5.97q-1.6 0-2.657.942-1.057.944-1.315 2.514h7.886q-.228-1.571-1.257-2.514t-2.657-.943m12.825-2.43v1.972q.514-.971 1.686-1.629 1.2-.685 2.886-.685 2.629 0 4.057 1.6 1.457 1.599 1.457 4.257v9.314h-3.4v-8.886q0-1.57-.743-2.457-.714-.915-2.2-.914-1.629 0-2.571.971-.915.972-.915 2.686v8.6h-3.4V9.745Zm20.016 11.8v2.943q-.629.172-1.772.172-4.343 0-4.343-4.372V12.46h-2.257V9.745h2.257V5.887h3.4v3.858h2.772v2.714h-2.772v7.486q0 1.742 1.658 1.742z" style="fill:#fff"/></svg>