<svg xmlns="http://www.w3.org/2000/svg" width="542" height="168" fill="none"><g class="fills"><rect width="542" height="168" class="frame-background" rx="0" ry="0"/></g><g class="frame-children"><g class="fills"><rect width="542" height="168" class="frame-background" rx="0" ry="0"/></g><g class="frame-children"><path d="M33.068.5 15.46 25.234v13.981L.138 46.484 0 46.419v91.215l59.737 28.148 3.651 1.718 3.65-1.718 59.737-28.148V46.419l-.112.053-15.326-7.271V25.234l-.537-.752L93.728.5 76.12 25.234v.025L63.307 7.261 50.594 25.12l-.454-.638zm3.115 14.367 6.81 9.566H23.142l6.731-9.453zm60.659 0 6.811 9.566h-19.85l6.729-9.453zm-30.42 6.762 6.81 9.565H53.383l6.73-9.453zM21.26 29.254h9.415v31.618l-9.415-4.436zm14.248 0h9.368v38.309l-9.368-4.414zm46.413 0h9.414v33.862l-9.414 4.436zm14.247 0h9.367v27.171l-9.367 4.414zM51.5 36.015h9.415v39.104L51.5 70.683zm14.249 0h9.367v34.744l-9.367 4.414zm447.537 3.452-.047 17.602-9.464-.064v7.172h9.492v37.814q-.002 4.132.652 7.663l.005.02.003.022c.536 2.405 1.442 4.501 2.734 6.251 1.304 1.764 3.048 3.12 5.153 4.036 2.148 1.018 4.761 1.495 7.827 1.495 1.397 0 2.997-.228 4.831-.663a44 44 0 0 0 5.462-1.686l1.066-.406-2.3-6.878-1.206.556c-2.343 1.012-4.638 1.77-7.094 1.783-1.978 0-3.533-.283-4.671-.772-1.087-.587-1.927-1.322-2.564-2.235-.666-1.038-1.155-2.231-1.464-3.603-.238-1.517-.363-3.208-.363-5.077v-38.32h17.591v-7.166h-17.591V39.467zm-401.951 6.94 8.289 3.38-8.289 3.905zm-95.875.012v7.284l-8.287-3.905zm388.428 9.075c-3.989.002-7.862.982-11.559 2.914l-.006.003-.005.003c-2.988 1.599-5.481 3.268-8.102 5.241l-.047-6.644h-7.79v90.341h7.945v-32.293c2.603 1.772 5.175 3.307 7.694 4.424l.012.005.013.006c3.16 1.313 6.273 1.984 9.316 1.984 3.703 0 7.254-.752 10.608-2.249l.007-.003.007-.003c3.439-1.584 6.449-3.836 8.999-6.731l-.003.001c2.641-2.985 4.699-6.574 6.177-10.737 1.488-4.187 2.22-8.91 2.22-14.153 0-9.59-2.063-17.347-6.297-23.157l-.002-.003c-4.268-5.94-10.813-8.949-19.187-8.949m-192.397.001c-3.99.001-7.863.981-11.561 2.913l-.005.003-.005.003c-2.988 1.599-5.481 3.269-8.102 5.242l-.047-6.645h-7.79v90.342h7.945V115.06c2.603 1.772 5.175 3.306 7.693 4.423l.013.006.013.006c3.16 1.313 6.272 1.983 9.316 1.983 3.703 0 7.253-.751 10.608-2.248l.007-.004.007-.002c3.439-1.584 6.449-3.836 8.999-6.731l-.003.001c2.641-2.985 4.699-6.574 6.177-10.737 1.487-4.188 2.22-8.91 2.22-14.153 0-9.59-2.063-17.347-6.297-23.157l-.002-.003c-4.268-5.94-10.812-8.949-19.186-8.949m129.353 0c-4.412.001-8.411 1.114-11.892 3.337-2.843 1.745-5.598 3.969-8.298 6.491l.056-8.312h-7.631v62.952h7.947V74.287c3.525-3.56 6.7-6.931 9.441-8.65l.01-.007.01-.006c2.766-1.813 5.802-2.708 9.218-2.708 4.729 0 7.778 1.392 9.644 4.147l.011.015.011.016c1.958 2.704 3.065 7.223 3.065 13.568v39.301h7.945V79.904c0-8.057-1.48-14.169-4.679-18.271-3.206-4.11-8.293-6.138-14.858-6.138m-65.33.001c-3.548 0-7.02.801-10.367 2.38l-.006.003c-3.273 1.501-6.232 3.709-8.856 6.588l-.001.001c-2.559 2.816-4.614 6.273-6.177 10.343l-.004.01-.004.011c-1.488 4.104-2.222 8.703-2.222 13.781s.734 9.679 2.222 13.782l.005.015.006.014c1.565 3.989 3.665 7.444 6.301 10.336l.008.006.005.008a27.2 27.2 0 0 0 9.26 6.465l.005.001.005.002c3.604 1.491 7.438 2.236 11.465 2.236 4.578 0 8.403-.638 11.478-1.988l.006-.004q4.486-1.917 8.226-4.103l.983-.574-3.459-6.513-1.111.821c-2.186 1.615-4.343 2.619-6.939 3.591-2.464.871-5.504 1.317-8.678 1.317-3.307 0-6.244-.313-8.855-1.494a21.7 21.7 0 0 1-6.816-5.126c-1.835-2.233-3.283-4.87-4.336-7.94l-.001-.002c-.934-2.798-1.426-5.828-1.597-9.032h43.803c0-1.234.119-2.421.124-3.457v-2.272c0-9.102-2.117-16.312-6.482-21.465-4.355-5.141-10.468-7.74-17.991-7.741m192.547 0c-3.784 0-7.414.75-10.851 2.244s-6.489 3.658-9.124 6.461l-.006.007-.008.007c-2.563 2.821-4.618 6.324-6.18 10.477l-.002.006-.003.008c-1.489 4.106-2.222 8.747-2.222 13.907s.733 9.802 2.222 13.909l.005.014.006.014c1.564 3.985 3.619 7.398 6.173 10.209l.007.007.007.008c2.635 2.803 5.685 4.964 9.124 6.459a27 27 0 0 0 10.852 2.245c3.784 0 7.415-.751 10.852-2.245a25.9 25.9 0 0 0 9.13-6.467c2.645-2.815 4.706-6.238 6.187-10.232 1.577-4.11 2.354-8.757 2.354-13.921 0-5.161-.777-9.807-2.352-13.915-1.479-4.159-3.539-7.668-6.19-10.491a25.9 25.9 0 0 0-9.129-6.467 27 27 0 0 0-10.852-2.244M7.3 57.912l52.437 24.706v75.109L7.3 133.022zm112.174 0v75.11l-52.436 24.705V82.618zm156.165 4.751c5.204 0 9.126 1.76 12.12 5.375l.002.005.004.006c2.782 3.286 4.298 8.453 4.463 15.467H256.15c.377-2.97 1.004-5.696 1.984-8.073 1.217-2.747 2.704-5.063 4.455-6.97 1.839-1.912 3.85-3.323 6.053-4.264l.016-.008.016-.007a16.3 16.3 0 0 1 6.965-1.531m-65.033.125c3.304.001 6.044.641 8.284 1.873l.014.008.014.008c2.268 1.169 4.079 2.821 5.493 5.014l.006.009.006.008c1.42 2.125 2.466 4.712 3.116 7.79l.002.015.005.014c.735 3.098 1.107 6.455 1.107 10.077 0 4.018-.535 7.68-1.59 11l-.004.009-.003.009c-.977 3.25-2.35 6.019-4.11 8.333-1.757 2.31-3.849 4.077-6.306 5.342-2.448 1.261-5.072 1.887-7.933 1.887-2.164 0-4.728-.546-7.668-1.686-2.753-1.068-5.813-3.692-9.112-6.303V72.663c3.499-2.975 6.763-5.797 9.741-7.36l.005-.002.005-.003c3.156-1.695 6.122-2.51 8.928-2.51m192.397 0c3.305.001 6.046.641 8.285 1.873l.014.008.014.008c2.268 1.169 4.079 2.821 5.493 5.014l.006.009.006.008c1.42 2.125 2.466 4.712 3.116 7.79l.002.015.005.014c.735 3.098 1.107 6.455 1.107 10.077 0 4.018-.535 7.68-1.59 11l-.005.009-.002.009c-.978 3.25-2.351 6.019-4.111 8.333-1.757 2.31-3.849 4.077-6.306 5.342-2.448 1.261-5.072 1.887-7.933 1.887-2.164 0-4.727-.546-7.668-1.686-2.752-1.068-5.813-3.692-9.112-6.303V72.663c3.499-2.975 6.764-5.797 9.742-7.36l.004-.002.005-.003c3.156-1.695 6.122-2.51 8.928-2.51m65.059 0c2.861.001 5.484.629 7.933 1.889l.021.01.02.01c2.528 1.182 4.644 2.898 6.391 5.196l.014.019.014.017c1.838 2.232 3.29 4.916 4.347 8.079 1.051 3.143 1.584 6.673 1.584 10.605 0 3.846-.532 7.333-1.584 10.479-1.057 3.163-2.509 5.846-4.347 8.078l-.008.011-.007.011a18.7 18.7 0 0 1-6.424 5.22c-2.451 1.182-5.084 1.772-7.954 1.772-2.866 0-5.498-.589-7.946-1.768-2.462-1.27-4.6-3.006-6.44-5.238-1.756-2.232-3.169-4.92-4.227-8.086-1.052-3.146-1.585-6.633-1.585-10.479 0-3.932.534-7.462 1.585-10.605 1.059-3.17 2.473-5.86 4.232-8.094l.002-.002.002-.004c1.84-2.312 3.969-4.037 6.416-5.218l.014-.007.013-.006c2.449-1.261 5.073-1.889 7.934-1.889" class="fills" style="font-variant:normal;stroke-opacity:1;stroke:none;word-spacing:normal;text-decoration:none solid;isolation:auto;baseline-shift:baseline;color:#000;fill-rule:nonzero;text-transform:none;overflow:visible;image-rendering:auto;stroke-dashoffset:0;font-stretch:normal;text-anchor:start;text-indent:0;font-family:sans-serif;writing-mode:lr-tb;letter-spacing:normal;color-rendering:auto;opacity:1;mix-blend-mode:normal;stroke-linejoin:miter;font-style:normal;font-weight:400;stroke-dasharray:none;white-space:normal;stroke-miterlimit:4;text-align:start;display:inline;shape-rendering:auto;line-height:normal;font-size:medium;text-rendering:auto;stroke-linecap:butt;visibility:visible;direction:ltr;color-interpolation:srgb;clip-rule:nonzero;color-interpolation-filters:linearrgb;fill:#fff;fill-opacity:1"/><g class="strokes" style="font-variant:normal;stroke-opacity:1;stroke:none;word-spacing:normal;text-decoration:none solid;isolation:auto;baseline-shift:baseline;color:#000;fill-rule:nonzero;text-transform:none;overflow:visible;image-rendering:auto;stroke-dashoffset:0;font-stretch:normal;text-anchor:start;text-indent:0;font-family:sans-serif;writing-mode:lr-tb;letter-spacing:normal;color-rendering:auto;opacity:1;mix-blend-mode:normal;stroke-linejoin:miter;font-style:normal;font-weight:400;stroke-dasharray:none;white-space:normal;stroke-miterlimit:4;text-align:start;display:inline;shape-rendering:auto;line-height:normal;font-size:medium;text-rendering:auto;stroke-linecap:butt;visibility:visible;direction:ltr;color-interpolation:srgb;clip-rule:nonzero;color-interpolation-filters:linearrgb"><path d="M33.068.5 15.46 25.234v13.981L.138 46.484 0 46.419v91.215l59.737 28.148 3.651 1.718 3.65-1.718 59.737-28.148V46.419l-.112.053-15.326-7.271V25.234l-.537-.752L93.728.5 76.12 25.234v.025L63.307 7.261 50.594 25.12l-.454-.638zm3.115 14.367 6.81 9.566H23.142l6.731-9.453zm60.659 0 6.811 9.566h-19.85l6.729-9.453zm-30.42 6.762 6.81 9.565H53.383l6.73-9.453zM21.26 29.254h9.415v31.618l-9.415-4.436zm14.248 0h9.368v38.309l-9.368-4.414zm46.413 0h9.414v33.862l-9.414 4.436zm14.247 0h9.367v27.171l-9.367 4.414zM51.5 36.015h9.415v39.104L51.5 70.683zm14.249 0h9.367v34.744l-9.367 4.414zm447.537 3.452-.047 17.602-9.464-.064v7.172h9.492v37.814q-.002 4.132.652 7.663l.005.02.003.022c.536 2.405 1.442 4.501 2.734 6.251 1.304 1.764 3.048 3.12 5.153 4.036 2.148 1.018 4.761 1.495 7.827 1.495 1.397 0 2.997-.228 4.831-.663a44 44 0 0 0 5.462-1.686l1.066-.406-2.3-6.878-1.206.556c-2.343 1.012-4.638 1.77-7.094 1.783-1.978 0-3.533-.283-4.671-.772-1.087-.587-1.927-1.322-2.564-2.235-.666-1.038-1.155-2.231-1.464-3.603-.238-1.517-.363-3.208-.363-5.077v-38.32h17.591v-7.166h-17.591V39.467zm-401.951 6.94 8.289 3.38-8.289 3.905zm-95.875.012v7.284l-8.287-3.905zm388.428 9.075c-3.989.002-7.862.982-11.559 2.914l-.006.003-.005.003c-2.988 1.599-5.481 3.268-8.102 5.241l-.047-6.644h-7.79v90.341h7.945v-32.293c2.603 1.772 5.175 3.307 7.694 4.424l.012.005.013.006c3.16 1.313 6.273 1.984 9.316 1.984 3.703 0 7.254-.752 10.608-2.249l.007-.003.007-.003c3.439-1.584 6.449-3.836 8.999-6.731l-.003.001c2.641-2.985 4.699-6.574 6.177-10.737 1.488-4.187 2.22-8.91 2.22-14.153 0-9.59-2.063-17.347-6.297-23.157l-.002-.003c-4.268-5.94-10.813-8.949-19.187-8.949m-192.397.001c-3.99.001-7.863.981-11.561 2.913l-.005.003-.005.003c-2.988 1.599-5.481 3.269-8.102 5.242l-.047-6.645h-7.79v90.342h7.945V115.06c2.603 1.772 5.175 3.306 7.693 4.423l.013.006.013.006c3.16 1.313 6.272 1.983 9.316 1.983 3.703 0 7.253-.751 10.608-2.248l.007-.004.007-.002c3.439-1.584 6.449-3.836 8.999-6.731l-.003.001c2.641-2.985 4.699-6.574 6.177-10.737 1.487-4.188 2.22-8.91 2.22-14.153 0-9.59-2.063-17.347-6.297-23.157l-.002-.003c-4.268-5.94-10.812-8.949-19.186-8.949m129.353 0c-4.412.001-8.411 1.114-11.892 3.337-2.843 1.745-5.598 3.969-8.298 6.491l.056-8.312h-7.631v62.952h7.947V74.287c3.525-3.56 6.7-6.931 9.441-8.65l.01-.007.01-.006c2.766-1.813 5.802-2.708 9.218-2.708 4.729 0 7.778 1.392 9.644 4.147l.011.015.011.016c1.958 2.704 3.065 7.223 3.065 13.568v39.301h7.945V79.904c0-8.057-1.48-14.169-4.679-18.271-3.206-4.11-8.293-6.138-14.858-6.138m-65.33.001c-3.548 0-7.02.801-10.367 2.38l-.006.003c-3.273 1.501-6.232 3.709-8.856 6.588l-.001.001c-2.559 2.816-4.614 6.273-6.177 10.343l-.004.01-.004.011c-1.488 4.104-2.222 8.703-2.222 13.781s.734 9.679 2.222 13.782l.005.015.006.014c1.565 3.989 3.665 7.444 6.301 10.336l.008.006.005.008a27.2 27.2 0 0 0 9.26 6.465l.005.001.005.002c3.604 1.491 7.438 2.236 11.465 2.236 4.578 0 8.403-.638 11.478-1.988l.006-.004q4.486-1.917 8.226-4.103l.983-.574-3.459-6.513-1.111.821c-2.186 1.615-4.343 2.619-6.939 3.591-2.464.871-5.504 1.317-8.678 1.317-3.307 0-6.244-.313-8.855-1.494a21.7 21.7 0 0 1-6.816-5.126c-1.835-2.233-3.283-4.87-4.336-7.94l-.001-.002c-.934-2.798-1.426-5.828-1.597-9.032h43.803c0-1.234.119-2.421.124-3.457v-2.272c0-9.102-2.117-16.312-6.482-21.465-4.355-5.141-10.468-7.74-17.991-7.741m192.547 0c-3.784 0-7.414.75-10.851 2.244s-6.489 3.658-9.124 6.461l-.006.007-.008.007c-2.563 2.821-4.618 6.324-6.18 10.477l-.002.006-.003.008c-1.489 4.106-2.222 8.747-2.222 13.907s.733 9.802 2.222 13.909l.005.014.006.014c1.564 3.985 3.619 7.398 6.173 10.209l.007.007.007.008c2.635 2.803 5.685 4.964 9.124 6.459a27 27 0 0 0 10.852 2.245c3.784 0 7.415-.751 10.852-2.245a25.9 25.9 0 0 0 9.13-6.467c2.645-2.815 4.706-6.238 6.187-10.232 1.577-4.11 2.354-8.757 2.354-13.921 0-5.161-.777-9.807-2.352-13.915-1.479-4.159-3.539-7.668-6.19-10.491a25.9 25.9 0 0 0-9.129-6.467 27 27 0 0 0-10.852-2.244M7.3 57.912l52.437 24.706v75.109L7.3 133.022zm112.174 0v75.11l-52.436 24.705V82.618zm156.165 4.751c5.204 0 9.126 1.76 12.12 5.375l.002.005.004.006c2.782 3.286 4.298 8.453 4.463 15.467H256.15c.377-2.97 1.004-5.696 1.984-8.073 1.217-2.747 2.704-5.063 4.455-6.97 1.839-1.912 3.85-3.323 6.053-4.264l.016-.008.016-.007a16.3 16.3 0 0 1 6.965-1.531m-65.033.125c3.304.001 6.044.641 8.284 1.873l.014.008.014.008c2.268 1.169 4.079 2.821 5.493 5.014l.006.009.006.008c1.42 2.125 2.466 4.712 3.116 7.79l.002.015.005.014c.735 3.098 1.107 6.455 1.107 10.077 0 4.018-.535 7.68-1.59 11l-.004.009-.003.009c-.977 3.25-2.35 6.019-4.11 8.333-1.757 2.31-3.849 4.077-6.306 5.342-2.448 1.261-5.072 1.887-7.933 1.887-2.164 0-4.728-.546-7.668-1.686-2.753-1.068-5.813-3.692-9.112-6.303V72.663c3.499-2.975 6.763-5.797 9.741-7.36l.005-.002.005-.003c3.156-1.695 6.122-2.51 8.928-2.51m192.397 0c3.305.001 6.046.641 8.285 1.873l.014.008.014.008c2.268 1.169 4.079 2.821 5.493 5.014l.006.009.006.008c1.42 2.125 2.466 4.712 3.116 7.79l.002.015.005.014c.735 3.098 1.107 6.455 1.107 10.077 0 4.018-.535 7.68-1.59 11l-.005.009-.002.009c-.978 3.25-2.351 6.019-4.111 8.333-1.757 2.31-3.849 4.077-6.306 5.342-2.448 1.261-5.072 1.887-7.933 1.887-2.164 0-4.727-.546-7.668-1.686-2.752-1.068-5.813-3.692-9.112-6.303V72.663c3.499-2.975 6.764-5.797 9.742-7.36l.004-.002.005-.003c3.156-1.695 6.122-2.51 8.928-2.51m65.059 0c2.861.001 5.484.629 7.933 1.889l.021.01.02.01c2.528 1.182 4.644 2.898 6.391 5.196l.014.019.014.017c1.838 2.232 3.29 4.916 4.347 8.079 1.051 3.143 1.584 6.673 1.584 10.605 0 3.846-.532 7.333-1.584 10.479-1.057 3.163-2.509 5.846-4.347 8.078l-.008.011-.007.011a18.7 18.7 0 0 1-6.424 5.22c-2.451 1.182-5.084 1.772-7.954 1.772-2.866 0-5.498-.589-7.946-1.768-2.462-1.27-4.6-3.006-6.44-5.238-1.756-2.232-3.169-4.92-4.227-8.086-1.052-3.146-1.585-6.633-1.585-10.479 0-3.932.534-7.462 1.585-10.605 1.059-3.17 2.473-5.86 4.232-8.094l.002-.002.002-.004c1.84-2.312 3.969-4.037 6.416-5.218l.014-.007.013-.006c2.449-1.261 5.073-1.889 7.934-1.889" class="stroke-shape" style="fill:none"/></g></g></g></svg>