<?xml version="1.0" encoding="UTF-8" standalone="no"?>
<svg
   id="a"
   viewBox="0 0 799.94999 235.4"
   version="1.1"
   sodipodi:docname="signed-dropsolid.svg"
   width="799.95001"
   height="235.39999"
   inkscape:version="1.4.3 (0d15f75, 2025-12-25)"
   xmlns:inkscape="http://www.inkscape.org/namespaces/inkscape"
   xmlns:sodipodi="http://sodipodi.sourceforge.net/DTD/sodipodi-0.dtd"
   xmlns="http://www.w3.org/2000/svg"
   xmlns:svg="http://www.w3.org/2000/svg">
  <sodipodi:namedview
     id="namedview33"
     pagecolor="#505050"
     bordercolor="#eeeeee"
     borderopacity="1"
     inkscape:showpageshadow="0"
     inkscape:pageopacity="0"
     inkscape:pagecheckerboard="0"
     inkscape:deskcolor="#505050"
     inkscape:zoom="1"
     inkscape:cx="400"
     inkscape:cy="140.5"
     inkscape:window-width="2229"
     inkscape:window-height="1032"
     inkscape:window-x="0"
     inkscape:window-y="572"
     inkscape:window-maximized="0"
     inkscape:current-layer="a" />
  <defs
     id="defs1">
    <style
       id="style1">.b{fill:#1c0d82;}</style>
  </defs>
  <path
     id="path9"
     style="fill:#ffffff"
     class="b"
     d="m 347.53,69.83 c -27.36,0 -49.62,22.26 -49.62,49.62 v 26.07 h -13.46 v 23.54 h 13.46 v 66.34 h 23.55 v -66.34 h 26.07 c 27.36,0 49.62,-22.26 49.62,-49.62 0,-27.36 -22.26,-49.62 -49.62,-49.62 z m 0,75.69 h -26.07 v -26.07 c 0,-14.38 11.7,-26.07 26.07,-26.07 14.37,0 26.07,11.7 26.07,26.07 0,14.37 -11.7,26.07 -26.07,26.07 z M 99.24,69.91 V 0 H 75.69 V 69.91 H 49.62 C 22.26,69.91 0,92.17 0,119.53 c 0,27.36 22.26,49.62 49.62,49.62 27.36,0 49.62,-22.26 49.62,-49.62 V 93.46 h 12.04 V 69.91 Z m -23.55,49.62 c 0,14.38 -11.7,26.07 -26.07,26.07 -14.37,0 -26.07,-11.7 -26.07,-26.07 0,-14.37 11.7,-26.07 26.07,-26.07 H 75.69 Z M 787.9,69.91 V 0 h -23.54 v 69.91 h -26.07 c -27.36,0 -49.62,22.26 -49.62,49.62 0,27.36 22.26,49.62 49.62,49.62 27.36,0 49.62,-22.26 49.62,-49.62 V 93.46 h 12.04 V 69.91 h -12.04 z m -23.54,49.62 c 0,14.38 -11.7,26.07 -26.07,26.07 -14.37,0 -26.07,-11.7 -26.07,-26.07 0,-14.37 11.7,-26.07 26.07,-26.07 h 26.07 z M 651.48,32.11 h 24.06 v 24.06 h -24.06 z m 0,38.8 h 24.06 v 97.01 h -24.06 z m -44.81,91.87 c -4.14,-4.72 -6.21,-10.83 -6.21,-18.33 V 13.49 h 24.06 v 121.06 c 0,5.18 0.29,8.83 0.87,10.96 0.58,2.13 1.61,3.43 3.1,3.88 1.49,0.45 4.04,0.68 7.66,0.68 l -2.13,19.79 h -8.73 c -8.28,0 -14.49,-2.36 -18.63,-7.08 z m -95.77,0.29 c -7.5,-4.53 -13.26,-10.61 -17.27,-18.24 -4.01,-7.63 -6.01,-16.04 -6.01,-25.22 0,-9.18 2,-17.65 6.01,-25.42 4.01,-7.76 9.77,-13.9 17.27,-18.43 7.5,-4.53 16.36,-6.79 26.58,-6.79 10.22,0 19.08,2.26 26.58,6.79 7.5,4.53 13.26,10.67 17.27,18.43 4.01,7.76 6.02,16.24 6.02,25.42 0,9.18 -2.01,17.59 -6.02,25.22 -4.01,7.63 -9.77,13.71 -17.27,18.24 -7.5,4.53 -16.36,6.79 -26.58,6.79 -10.22,0 -19.08,-2.26 -26.58,-6.79 z m 45.11,-21.34 c 4.46,-5.56 6.69,-12.93 6.69,-22.12 0,-9.19 -2.23,-16.78 -6.69,-22.41 -4.46,-5.63 -10.64,-8.44 -18.53,-8.44 -7.89,0 -14.07,2.81 -18.53,8.44 -4.46,5.63 -6.69,13.1 -6.69,22.41 0,9.31 2.23,16.56 6.69,22.12 4.46,5.56 10.64,8.34 18.53,8.34 7.89,0 14.07,-2.78 18.53,-8.34 z m -134.06,26.38 c -5.11,-1.16 -10.38,-2.97 -15.81,-5.43 l 2.13,-20.57 c 5.43,3.23 10.51,5.66 15.23,7.27 4.72,1.62 9.6,2.43 14.65,2.43 9.83,0 14.75,-3.23 14.75,-9.7 0,-3.49 -1.29,-6.18 -3.88,-8.05 -2.59,-1.87 -7.24,-4.11 -13.97,-6.69 -9.57,-3.49 -16.62,-7.47 -21.15,-11.93 -4.53,-4.46 -6.79,-10.51 -6.79,-18.14 0,-8.41 3.23,-15.23 9.7,-20.47 6.47,-5.24 15.2,-7.86 26.19,-7.86 10.99,0 21.02,2.52 30.07,7.57 l -2.13,20.57 c -4.92,-3.36 -9.54,-5.95 -13.87,-7.76 -4.33,-1.81 -8.89,-2.72 -13.68,-2.72 -4.14,0 -7.34,0.84 -9.6,2.52 -2.26,1.68 -3.4,4.07 -3.4,7.18 0,2.46 0.68,4.46 2.04,6.01 1.36,1.55 3.27,2.94 5.72,4.17 2.46,1.23 6.53,2.94 12.22,5.14 9.44,3.62 16.23,7.6 20.37,11.93 4.14,4.34 6.21,10.12 6.21,17.37 0,9.19 -3.3,16.3 -9.9,21.34 -6.6,5.04 -15.98,7.57 -28.13,7.57 -6.21,0 -11.87,-0.58 -16.98,-1.75 z M 203.7,163.07 c -7.5,-4.53 -13.26,-10.61 -17.27,-18.24 -4.01,-7.63 -6.01,-16.04 -6.01,-25.22 0,-9.18 2,-17.65 6.01,-25.42 4.01,-7.76 9.77,-13.9 17.27,-18.43 7.5,-4.53 16.36,-6.79 26.58,-6.79 10.22,0 19.08,2.26 26.58,6.79 7.5,4.53 13.26,10.67 17.27,18.43 4.01,7.76 6.02,16.24 6.02,25.42 0,9.18 -2.01,17.59 -6.02,25.22 -4.01,7.63 -9.77,13.71 -17.27,18.24 -7.5,4.53 -16.36,6.79 -26.58,6.79 -10.22,0 -19.08,-2.26 -26.58,-6.79 z m 45.11,-21.34 c 4.46,-5.56 6.69,-12.93 6.69,-22.12 0,-9.19 -2.23,-16.78 -6.69,-22.41 -4.46,-5.63 -10.64,-8.44 -18.53,-8.44 -7.89,0 -14.07,2.81 -18.53,8.44 -4.46,5.63 -6.69,13.1 -6.69,22.41 0,9.31 2.23,16.56 6.69,22.12 4.46,5.56 10.64,8.34 18.53,8.34 7.89,0 14.07,-2.78 18.53,-8.34 z M 123.96,69.91 h 22.51 l 0.58,11.28 c 2.84,-3.23 6.5,-6.08 10.96,-8.54 4.46,-2.46 9.15,-3.69 14.07,-3.69 1.55,0 2.97,0.13 4.27,0.39 l -1.75,23.67 c -2.46,-0.64 -5.24,-0.97 -8.34,-0.97 -4.01,0 -7.7,0.94 -11.06,2.81 -3.37,1.88 -5.76,4.17 -7.18,6.89 v 66.16 h -24.06 z" />
</svg>
