<svg xmlns="http://www.w3.org/2000/svg" width="160" height="39" fill="none"><g fill="#dd042d" clip-path="url(#a)"><path d="M15.989.38h-9.59A3.2 3.2 0 0 0 3.2 3.58h2.877v9.291c.06.709 1.093 1.486 3.23 1.622 1.75.109 3.397-.545 3.812-1.526V3.588c.366.034 2.418.565 2.803 2.554q.04.173.055.35v.006q.012.133.012.28v9.593h-2.877v-1.394a3.64 3.64 0 0 1-1.997 1.394h-4.72a3.16 3.16 0 0 1-3.199-3.199V3.58A3.2 3.2 0 0 0 0 6.777v9.594a3.2 3.2 0 0 0 3.198 3.199h9.593a3.2 3.2 0 0 0 3.198-3.2 3.196 3.196 0 0 0 3.198-3.197V3.579A3.2 3.2 0 0 0 15.989.38M150.43 3.665c-1.822.054-2.905 0-3.8 1.41-.653-1.07-2.032-1.34-2.852-1.378v12.67l2.918-.003-.032-9.11c.048-1.025 1.732-1.825 3.74-1.697 2.12.134 3.146.903 3.203 1.606v9.213h2.854V6.864c-.242-2.234-1.125-3.346-6.031-3.2Zm-86.976.019c.207.413 5.238 10.535 5.602 11.13a3.7 3.7 0 0 0 2.23 1.568c.73.092 1.468.087 2.196-.015.11-.075 3.883-9.888 3.96-10.12s.206-1.398-1.063-2.512c-1.707 4.272-3.235 8.439-4.27 10.898-1.759-3.467-3.348-6.883-4.76-9.239a3.32 3.32 0 0 0-2.383-1.708zm-14.608.055c-1.823.054-2.906 0-3.801 1.408-.654-1.069-2.033-1.337-2.852-1.376v12.668h2.917l-.03-9.112c.046-1.025 1.73-1.824 3.74-1.696 2.118.134 3.143.902 3.202 1.607v9.21h2.854V6.934c-.24-2.231-1.125-3.346-6.03-3.199m53.875.004c-1.82.054-2.904 0-3.8 1.408-.654-1.069-2.033-1.337-2.85-1.376v12.668h2.915l-.03-9.112c.047-1.025 1.731-1.824 3.739-1.696 2.119.134 3.144.902 3.204 1.607v9.21h2.854V6.934c-.241-2.231-1.127-3.346-6.032-3.199M58.905.031h1.84a.51.51 0 0 1 .507.508v1.837a.51.51 0 0 1-.509.509h-1.838a.507.507 0 0 1-.507-.507V.537a.507.507 0 0 1 .507-.506m56.939 3.806V0h-1.068v.708a3.18 3.18 0 0 1-.928 2.243 3.17 3.17 0 0 1-2.242.928h-.529v1.826h1.935v10.74h2.833V5.74h3.161V3.837zm21.683 8.804a1.9 1.9 0 0 1-1.902 1.903h-3.169a1.9 1.9 0 0 1-1.907-1.903V7.568a1.9 1.9 0 0 1 1.178-1.758c.231-.095.479-.144.729-.143h3.169a1.9 1.9 0 0 1 1.902 1.901zm-.317-8.876h-6.343a3.17 3.17 0 0 0-3.17 3.17v6.34a3.167 3.167 0 0 0 3.17 3.169h6.343a3.17 3.17 0 0 0 2.93-1.956c.159-.385.241-.797.241-1.213v-6.34a3.18 3.18 0 0 0-.929-2.242 3.16 3.16 0 0 0-2.242-.928M84.655 5.542h3.17a1.9 1.9 0 0 1 1.902 1.902v1h-6.975v-1a1.9 1.9 0 0 1 1.901-1.903m7.829 4.702h.126V6.882a3.17 3.17 0 0 0-3.171-3.172h-6.338a3.17 3.17 0 0 0-3.17 3.172v6.338c0 1.752 1.114 3.379 6.05 3.287 3.987-.073 6.456-.325 6.622-3.06h-2.989c-.201.366-1.006 1.273-3.609 1.17-2.793-.115-3.25-1.05-3.25-2.101v-2.273zm-31.251 6.182V6.873a3.2 3.2 0 0 0-2.834-3.199v12.751zM35.804 3.674v9.297c-.163.97-1.79 1.706-3.723 1.584-2.12-.135-3.144-.902-3.202-1.608V3.74h-2.853v9.509c.241 2.23 1.126 3.347 6.031 3.197 1.787-.054 2.864-.008 3.749-1.34v1.32h2.834V6.874a3.2 3.2 0 0 0-2.834-3.2M121.911.03h1.839a.51.51 0 0 1 .507.509v1.837a.507.507 0 0 1-.508.509h-1.838a.507.507 0 0 1-.507-.507V.536a.507.507 0 0 1 .507-.505Zm2.326 16.395V6.873a3.2 3.2 0 0 0-2.834-3.199v12.751zm28.578 9.716c-1.102.033-1.756 0-2.297.85a2.13 2.13 0 0 0-1.723-.83v7.657h1.763l-.019-5.504c.028-.619 1.045-1.102 2.26-1.025 1.279.081 1.898.545 1.934.971v5.558h1.726v-5.744c-.147-1.349-.681-2.022-3.644-1.933m-17.098 2.114v3.269a1.15 1.15 0 0 1-1.149 1.149h-1.915a1.15 1.15 0 0 1-1.124-.909l-.005-3.455c.027-.619 1.045-1.102 2.259-1.025 1.28.081 1.899.545 1.935.971m1.715-.255a1 1 0 0 0-.013-.1c-.176-1.23-.788-1.844-3.621-1.759-1.102.033-1.756 0-2.297.85a2.12 2.12 0 0 0-1.723-.83v12.67h1.763l-.01-5.026c.055.004.107.016.164.016h3.832a1.92 1.92 0 0 0 1.769-1.182 1.9 1.9 0 0 0 .146-.733v-3.832c0-.026-.008-.05-.01-.074m-35.469 3.695v-3.268a1.15 1.15 0 0 0-.337-.812 1.16 1.16 0 0 0-.813-.337H98.9a1.15 1.15 0 0 0-1.125.909l-.005 3.454c.027.62 1.045 1.103 2.259 1.026 1.28-.08 1.899-.545 1.935-.972m1.715.256a1 1 0 0 1-.013.1c-.176 1.23-.788 1.844-3.621 1.76-1.102-.035-1.755 0-2.297-.852a2.13 2.13 0 0 1-1.723.832V20.597a1.84 1.84 0 0 1 1.764 1.328l-.011 4.22c.054-.004.109-.016.163-.016h3.831a1.9 1.9 0 0 1 1.355.56 1.92 1.92 0 0 1 .561 1.355v3.833zm22.526-.455a1.15 1.15 0 0 1-1.149 1.15h-1.915a1.15 1.15 0 0 1-1.15-1.15v-3.064a1.15 1.15 0 0 1 1.15-1.15h1.915a1.15 1.15 0 0 1 1.149 1.15zm-.191-5.363h-3.832a1.915 1.915 0 0 0-1.914 1.915v3.832a1.916 1.916 0 0 0 1.914 1.915h3.832a1.92 1.92 0 0 0 1.77-1.182c.096-.232.146-.481.146-.733v-3.832a1.92 1.92 0 0 0-1.183-1.77 1.9 1.9 0 0 0-.733-.145m16.122 1.107h1.918a1.145 1.145 0 0 1 1.062.71q.088.21.088.44v.603h-4.214v-.604a1.16 1.16 0 0 1 .336-.813 1.15 1.15 0 0 1 .813-.337m4.73 2.841h.076v-2.03a1.916 1.916 0 0 0-1.916-1.917h-3.83a1.92 1.92 0 0 0-1.77 1.183 1.9 1.9 0 0 0-.146.733v3.83c0 1.058.674 2.04 3.656 1.985 2.41-.044 3.902-.195 4.002-1.848h-1.807c-.12.222-.607.77-2.179.709-1.689-.07-1.962-.635-1.962-1.27V30.08zm-38.484-2.839h1.916a1.15 1.15 0 0 1 1.15 1.15v.604h-4.214v-.604a1.14 1.14 0 0 1 .709-1.062c.139-.058.289-.088.439-.088m4.731 2.841h.076v-2.031a1.916 1.916 0 0 0-1.916-1.916h-3.83a1.91 1.91 0 0 0-1.769 1.183 1.9 1.9 0 0 0-.146.733v3.83c0 1.058.673 2.04 3.654 1.986 2.41-.044 3.903-.196 4.002-1.849h-1.805c-.122.222-.608.77-2.18.709-1.689-.07-1.961-.635-1.961-1.27v-1.373zm46.885 1.828h-1.737v1.923h1.737z"/></g><defs><clipPath id="a"><path fill="#fff" d="M0 0h160v38.834H0z"/></clipPath></defs></svg>