<?xml version="1.0" encoding="UTF-8" standalone="no"?>
<svg
   width="148"
   height="32"
   fill="none"
   viewBox="0 0 148 32"
   version="1.1"
   id="svg7"
   sodipodi:docname="signed-element.svg"
   inkscape:version="1.4.3 (0d15f75, 2025-12-25)"
   xmlns:inkscape="http://www.inkscape.org/namespaces/inkscape"
   xmlns:sodipodi="http://sodipodi.sourceforge.net/DTD/sodipodi-0.dtd"
   xmlns="http://www.w3.org/2000/svg"
   xmlns:svg="http://www.w3.org/2000/svg">
  <sodipodi:namedview
     id="namedview7"
     pagecolor="#505050"
     bordercolor="#eeeeee"
     borderopacity="1"
     inkscape:showpageshadow="0"
     inkscape:pageopacity="0"
     inkscape:pagecheckerboard="0"
     inkscape:deskcolor="#505050"
     inkscape:zoom="9.7501648"
     inkscape:cx="73.5885"
     inkscape:cy="16.051011"
     inkscape:window-width="2082"
     inkscape:window-height="878"
     inkscape:window-x="0"
     inkscape:window-y="572"
     inkscape:window-maximized="0"
     inkscape:current-layer="svg7" />
  <path
     id="path1"
     d="M 16 0 C 7.163 0 0 7.163 0 16 C 0 24.837 7.163 32 16 32 C 24.837 32 32 24.837 32 16 C 32 7.163 24.837 0 16 0 z M 14.25 6.2851562 C 18.636 6.2851562 22.191406 9.8339375 22.191406 14.210938 A 1.17 1.17 0 0 1 21.019531 15.380859 A 1.17 1.17 0 0 1 19.849609 14.210938 A 5.593 5.593 0 0 0 14.25 8.6230469 A 1.17 1.17 0 0 1 13.078125 7.4550781 C 13.07945 6.8102035 13.603818 6.2851562 14.25 6.2851562 z M 14.230469 9.8632812 A 1.17 1.17 0 0 1 14.230469 12.203125 A 5.593 5.593 0 0 0 8.6328125 17.789062 A 1.17 1.17 0 0 1 7.4609375 18.958984 A 1.17 1.17 0 0 1 6.2890625 17.789062 C 6.2880625 13.412062 9.8444688 9.8632813 14.230469 9.8632812 z M 24.542969 13.042969 L 24.544922 13.042969 A 1.17 1.17 0 0 1 25.716797 14.212891 C 25.716797 18.589891 22.160437 22.138672 17.773438 22.138672 A 1.17 1.17 0 1 1 17.773438 19.798828 A 5.593 5.593 0 0 0 23.373047 14.212891 C 23.373047 13.566891 23.896969 13.042969 24.542969 13.042969 z M 11 16.617188 A 1.17 1.17 0 0 1 12.171875 17.787109 A 5.593 5.593 0 0 0 17.769531 23.373047 A 1.17 1.17 0 0 1 18.941406 24.542969 A 1.17 1.17 0 0 1 17.769531 25.712891 C 13.383531 25.712891 9.828125 22.163109 9.828125 17.787109 C 9.828125 17.141109 10.353 16.617188 11 16.617188 z "
     style="fill:#ffffff" />
  <path
     fill="currentColor"
     d="M 56.285,18.145 H 44.999 q 0.2,1.77 1.286,2.828 1.086,1.029 2.857,1.029 1.171,0 2.114,-0.572 a 3.2,3.2 0 0 0 1.343,-1.543 h 3.429 a 6.96,6.96 0 0 1 -2.572,3.657 q -1.857,1.372 -4.4,1.372 -3.315,0 -5.371,-2.2 -2.029,-2.2 -2.029,-5.571 0,-3.286 2.057,-5.515 2.057,-2.229 5.315,-2.228 3.256,0 5.257,2.2 2.028,2.171 2.028,5.485 z m -7.257,-5.972 q -1.6,0 -2.657,0.943 -1.057,0.944 -1.315,2.514 h 7.886 q -0.229,-1.571 -1.257,-2.514 -1.03,-0.943 -2.657,-0.943 m 9.625,7.972 v -17 h 3.4 v 17.057 q 0,1.142 1.257,1.142 l 0.6,-0.028 v 3.229 a 6,6 0 0 1 -1.028,0.085 q -2.2,0 -3.229,-1.114 -1,-1.115 -1,-3.371 m 21.092,-2 H 68.459 q 0.2,1.77 1.285,2.828 1.087,1.029 2.858,1.029 1.17,0 2.114,-0.572 a 3.2,3.2 0 0 0 1.343,-1.543 h 3.428 a 6.96,6.96 0 0 1 -2.571,3.657 q -1.857,1.372 -4.4,1.372 -3.314,0 -5.372,-2.2 -2.028,-2.2 -2.028,-5.571 0,-3.286 2.057,-5.515 2.057,-2.229 5.314,-2.228 3.257,0.001 5.258,2.2 2.028,2.171 2.028,5.485 z m -7.258,-5.972 q -1.6,0 -2.657,0.943 -1.057,0.944 -1.314,2.514 h 7.886 q -0.23,-1.571 -1.258,-2.514 -1.027,-0.943 -2.657,-0.943 m 22.597,3.886 v 8.514 h -3.4 v -8.886 q 0,-3.37 -2.8,-3.371 -1.515,0 -2.428,0.971 -0.886,0.972 -0.886,2.657 v 8.63 h -3.4 V 9.743 h 3.143 v 1.972 q 0.543,-1.001 1.657,-1.657 1.115,-0.657 2.771,-0.657 3.087,0 4.457,2.343 1.886,-2.343 5.03,-2.343 2.6,0 3.999,1.628 1.4,1.6 1.4,4.229 v 9.314 h -3.4 v -8.886 q 0,-3.37 -2.8,-3.371 -1.543,0 -2.457,1 -0.886,0.972 -0.886,2.743 m 26.452,2.085 H 110.25 q 0.2,1.772 1.286,2.83 1.086,1.028 2.857,1.028 1.172,0 2.114,-0.572 0.944,-0.57 1.343,-1.543 h 3.429 a 6.96,6.96 0 0 1 -2.572,3.657 q -1.856,1.372 -4.4,1.372 -3.314,0 -5.371,-2.2 -2.029,-2.2 -2.029,-5.571 0,-3.286 2.058,-5.515 2.056,-2.228 5.314,-2.228 3.258,0 5.257,2.2 2.028,2.171 2.029,5.485 z m -7.257,-5.97 q -1.6,0 -2.657,0.942 -1.057,0.944 -1.315,2.514 h 7.886 q -0.228,-1.571 -1.257,-2.514 -1.029,-0.943 -2.657,-0.943 m 12.825,-2.43 v 1.972 q 0.514,-0.971 1.686,-1.629 1.2,-0.685 2.886,-0.685 2.629,0 4.057,1.6 1.457,1.599 1.457,4.257 v 9.314 h -3.4 v -8.886 q 0,-1.57 -0.743,-2.457 -0.714,-0.915 -2.2,-0.914 -1.629,0 -2.571,0.971 -0.915,0.972 -0.915,2.686 v 8.6 h -3.4 V 9.745 Z m 20.016,11.8 v 2.943 q -0.629,0.172 -1.772,0.172 -4.343,0 -4.343,-4.372 V 12.46 h -2.257 V 9.745 h 2.257 V 5.887 h 3.4 v 3.858 h 2.772 v 2.714 h -2.772 v 7.486 q 0,1.742 1.658,1.742 z"
     id="path6"
     style="fill:#ffffff" />
  <defs
     id="defs7" />
</svg>
