<svg xmlns="http://www.w3.org/2000/svg" xml:space="preserve" width="141.485" height="99.603" viewBox="0 0 132.642 93.377"><path d="M66.408 9.375c-11.805 0-21.811 8.003-24.912 18.847C38.8 22.47 32.96 18.44 26.232 18.44c-9.252 0-16.857 7.605-16.857 16.857s7.605 16.86 16.857 16.86c6.728 0 12.568-4.032 15.264-9.784 3.1 10.844 13.107 18.85 24.912 18.85 11.718 0 21.673-7.885 24.853-18.607 2.745 5.622 8.514 9.541 15.146 9.541 9.251 0 16.86-7.608 16.86-16.86s-7.609-16.857-16.86-16.857c-6.632 0-12.4 3.917-15.146 9.538-3.18-10.722-13.135-18.604-24.853-18.604m0 9.896c8.912 0 16.03 7.115 16.03 16.027 0 8.911-7.118 16.03-16.03 16.03a15.954 15.954 0 0 1-16.027-16.03A15.95 15.95 0 0 1 66.408 19.27m-40.176 9.065c3.904 0 6.965 3.057 6.965 6.962s-3.06 6.965-6.965 6.965-6.962-3.06-6.962-6.965 3.058-6.962 6.962-6.962m80.175 0c3.904 0 6.965 3.057 6.965 6.962s-3.061 6.965-6.965 6.965-6.962-3.06-6.962-6.965 3.057-6.962 6.962-6.962" style="color:#000;font-style:normal;font-variant:normal;font-weight:400;font-stretch:normal;font-size:medium;line-height:normal;font-family:sans-serif;text-indent:0;text-align:start;text-decoration:none;text-decoration-line:none;text-decoration-style:solid;text-decoration-color:#000;letter-spacing:normal;word-spacing:normal;text-transform:none;writing-mode:lr-tb;direction:ltr;baseline-shift:baseline;text-anchor:start;white-space:normal;clip-rule:nonzero;display:inline;overflow:visible;visibility:visible;opacity:1;isolation:auto;mix-blend-mode:normal;color-interpolation:sRGB;color-interpolation-filters:linearRGB;solid-color:#000;solid-opacity:1;fill:#0082c9;fill-opacity:1;fill-rule:nonzero;stroke:none;stroke-width:5.56590033;stroke-linecap:butt;stroke-linejoin:miter;stroke-miterlimit:10;stroke-dasharray:none;stroke-dashoffset:0;stroke-opacity:1;color-rendering:auto;image-rendering:auto;shape-rendering:auto;text-rendering:auto"/><path d="M21.236 69.044c-.33 0-.472.188-.472.517v13.643c0 .329.142.515.472.515h.377c.33 0 .515-.186.515-.515v-11.33l7.448 11.559c.032.05.067.084.103.12.01.013.017.026.03.037.031.03.066.044.1.062.019.01.034.025.055.032.015.005.03.002.046.006a.6.6 0 0 0 .17.028h.375c.329 0 .471-.186.471-.515V69.56c0-.33-.142-.517-.471-.517h-.376c-.33 0-.517.187-.517.517v11.33l-7.447-11.559c-.026-.039-.056-.063-.085-.094-.086-.121-.222-.194-.417-.194zm89.42.187c-.33 0-.188.188-.188.518v4.657c0 .47.046.799.046.799h-.046s-.894-2.07-3.387-2.07c-2.728 0-4.658 2.165-4.564 5.363 0 3.199 1.74 5.41 4.516 5.41 2.681 0 3.575-2.164 3.575-2.164h.048s-.094.282-.094.659v.798c0 .33.188.472.517.472h.33c.329 0 .469-.188.469-.517V69.749c0-.33-.518-.518-.847-.518zm-36.55.049c-.33 0-.14.188-.14.517V81.32c0 2.258 1.504 2.54 2.35 2.54.377 0 .518-.187.518-.517v-.33c0-.328-.188-.468-.423-.468-.47-.047-1.08-.19-1.08-1.506V69.797c0-.33-.518-.517-.847-.517zM57.22 70.502c-.329 0-.517.188-.517.517v8.937c0 2.446 1.365 3.81 3.623 3.81.423 0 .563-.14.563-.468v-.284c0-.376-.14-.47-.563-.517-.8-.047-2.259-.33-2.259-2.729v-5.174h2.117c.33 0 .517-.14.517-.47v-.141c0-.33-.188-.517-.517-.517h-2.117v-2.447c0-.33-.14-.517-.47-.517zm-18.735 2.634c-2.822 0-5.082 2.024-5.129 5.41 0 3.199 2.353 5.408 5.41 5.408a5.83 5.83 0 0 0 3.434-1.128c.235-.188.283-.424.142-.659l-.142-.233c-.141-.283-.375-.33-.657-.142-.47.376-1.413.94-2.73.94-2.117 0-3.952-1.506-3.999-4.14h7.48a.52.52 0 0 0 .517-.517c0-2.964-1.55-4.939-4.326-4.939m29.224 0c-3.057 0-5.409 2.258-5.456 5.456 0 3.199 2.353 5.41 5.41 5.41a5.8 5.8 0 0 0 3.67-1.318c.234-.235.28-.422.139-.705l-.14-.187c-.188-.283-.377-.33-.659-.142a4.35 4.35 0 0 1-2.916 1.082c-2.258 0-4.046-1.694-4.046-4.14 0-2.493 1.788-4.186 4.046-4.186 1.223 0 2.116.612 2.586.94.283.189.517.19.705-.093l.142-.236c.236-.282.187-.516-.048-.705-.517-.423-1.645-1.176-3.433-1.176m15.9 0c-3.011 0-5.457 2.305-5.457 5.362 0 3.105 2.446 5.456 5.456 5.456s5.457-2.351 5.457-5.456c0-3.057-2.446-5.362-5.457-5.362m-30.43.158c-.116.018-.227.096-.332.222l-1.905 2.268-1.423 1.698-2.158-2.57-1.17-1.396a.52.52 0 0 0-.35-.206.53.53 0 0 0-.38.142l-.288.242c-.252.212-.24.446-.028.698l1.904 2.268 1.58 1.884-2.312 2.753-.004.006-1.168 1.39c-.211.252-.188.518.064.73l.289.24c.252.212.482.158.693-.094l1.902-2.268 1.426-1.698 2.158 2.572.005.005 1.165 1.392c.211.252.477.273.73.061l.288-.24c.252-.212.24-.446.028-.698l-1.905-2.27-1.579-1.882 2.312-2.755.004-.006 1.168-1.39c.211-.252.188-.518-.064-.73l-.289-.24q-.189-.157-.361-.128m38.662.078c-.33 0-.472.188-.472.517v6.067c0 2.681 1.976 3.999 4.422 3.999s4.422-1.318 4.422-3.999V73.89c.047-.33-.14-.517-.47-.517h-.377c-.33 0-.517.188-.517.517v5.692c0 1.6-1.035 3.058-3.058 3.058-1.976 0-3.058-1.459-3.058-3.058V73.89c0-.33-.188-.517-.517-.517zm-53.404.94c1.505 0 2.822 1.082 2.916 3.246h-6.49c.329-2.117 1.834-3.246 3.574-3.246m45.171.094c2.211 0 3.999 1.74 3.999 4.092 0 2.446-1.788 4.234-3.999 4.234-2.21 0-3.999-1.835-4.046-4.234 0-2.304 1.836-4.092 4.046-4.092m23.567 0c2.21 0 3.293 2.024 3.293 4.14 0 2.964-1.6 4.186-3.341 4.186-1.929 0-3.244-1.645-3.291-4.185 0-2.635 1.504-4.14 3.339-4.14" style="fill:#0082c9;fill-opacity:1;stroke-width:.47038522"/></svg>