<svg xmlns="http://www.w3.org/2000/svg" id="Layer_2" data-name="Layer 2" viewBox="0 0 1103.82 344.92"><defs><style>.cls-1{fill:#a196a5}.cls-3{fill:#56368b}</style></defs><g id="Capa_1" data-name="Capa 1"><path d="M349.81 109.51c-4.66-9.4-11.05-16.81-19.15-22.24-8.1-5.42-17.35-8.14-27.74-8.14-7.03 0-13.72 1.26-20.06 3.78-6.35 2.52-11.58 5.85-15.71 9.97-.57.57-1.11 1.16-1.63 1.75l-.67-13.21H230v172.19h36.92v-62.82c4.28 4.43 9.55 7.95 15.82 10.55s12.84 3.9 19.72 3.9c10.55 0 19.91-2.71 28.09-8.14 8.17-5.42 14.6-12.88 19.26-22.35 4.66-9.48 6.99-20.33 6.99-32.56s-2.33-23.27-6.99-32.67Zm-32.22 49.64c-2.29 4.74-5.5 8.45-9.63 11.12-4.13 2.68-8.94 4.01-14.44 4.01s-10.55-1.34-14.67-4.01c-4.13-2.67-7.34-6.38-9.63-11.12s-3.44-10.39-3.44-16.97 1.15-12.07 3.44-16.97c2.29-4.89 5.5-8.64 9.63-11.24q6.195-3.9 14.67-3.9c8.475 0 10.51 1.34 14.56 4.01s7.22 6.42 9.51 11.23 3.44 10.43 3.44 16.85-1.15 12.23-3.44 16.97ZM488.42 115.82c-2.75-7.49-6.73-13.99-11.92-19.49-5.2-5.5-11.35-9.78-18.46-12.84s-14.94-4.58-23.5-4.58c-9.02 0-17.31 1.57-24.88 4.7s-14.1 7.57-19.6 13.3-9.78 12.5-12.84 20.29-4.58 16.36-4.58 25.68c0 12.08 2.75 22.81 8.25 32.22 5.5 9.4 13.22 16.82 23.16 22.24 9.94 5.43 21.63 8.14 35.08 8.14q8.25 0 16.62-1.95c5.58-1.3 11.04-3.25 16.39-5.85s10.39-5.96 15.13-10.09l-17.2-24.31c-4.74 3.67-9.14 6.27-13.18 7.8-4.05 1.53-8.68 2.29-13.87 2.29-7.49 0-13.95-1.38-19.38-4.13s-9.56-6.61-12.38-11.58c-1.31-2.29-2.3-4.78-3-7.45h83.6l.23-9.86c.31-8.86-.92-17.04-3.67-24.53m-78.19 7.68c2.14-4.51 5.31-7.95 9.52-10.32 4.2-2.37 9.29-3.56 15.25-3.56 4.28 0 8.1.84 11.47 2.52 3.36 1.68 6.07 4.01 8.14 6.99 2.06 2.98 3.25 6.38 3.55 10.2v.23H408.2c.52-2.18 1.16-4.24 2.04-6.07ZM625.53 101.26q-4.815-11.115-14.22-16.74c-6.27-3.74-13.99-5.62-23.16-5.62-6.73 0-13.15 1.38-19.26 4.13-6.12 2.75-11.35 6.38-15.71 10.89-.78.81-1.47 1.66-2.17 2.5l-.69-15h-34.85v121.75h36.68v-72.91c0-2.9.57-5.58 1.72-8.03a22 22 0 0 1 4.7-6.53c1.98-1.91 4.36-3.36 7.11-4.36 2.75-.99 5.73-1.49 8.94-1.49 4.13-.15 7.6.57 10.43 2.18 2.82 1.6 4.93 4.01 6.3 7.22 1.38 3.21 2.06 7.26 2.06 12.15v71.77h36.92v-74.75c0-10.7-1.6-19.75-4.81-27.17Z" class="cls-3"/><path d="M717.57 205.66q-18.39 0-32.79-8.82c-9.61-5.88-17.18-13.91-22.73-24.09s-8.32-21.73-8.32-34.65 2.77-24.47 8.32-34.65c5.55-10.19 13.12-18.17 22.73-23.97 9.6-5.8 20.62-8.69 33.04-8.69 11.09 0 21.2 2.2 30.3 6.58 9.1 4.39 16.39 10.48 21.86 18.26l-10.93 13.41c-3.15-4.14-6.92-7.78-11.3-10.93a54.8 54.8 0 0 0-14.16-7.33q-7.575-2.61-15.03-2.61c-8.78 0-16.64 2.2-23.6 6.58-6.96 4.39-12.46 10.31-16.52 17.76q-6.09 11.175-6.09 25.59c0 14.415 2.03 18.17 6.09 25.71s9.56 13.46 16.52 17.76c6.95 4.31 14.74 6.46 23.35 6.46 4.97 0 9.85-.78 14.65-2.36 4.8-1.57 9.36-3.85 13.66-6.83s8.28-6.71 11.92-11.18l10.93 13.41c-5.63 7.45-13.17 13.41-22.6 17.88-9.44 4.47-19.21 6.71-29.31 6.71ZM888.09 94.13c-3.23-7.95-8.16-13.82-14.78-17.64-6.62-3.81-14.9-5.71-24.84-5.71q-10.425 0-20.49 4.47c-6.71 2.98-12.54 7.08-17.51 12.3a42.5 42.5 0 0 0-6.46 8.77V19.36h-18.63v183.81h18.63v-78.99c0-4.97.99-9.6 2.98-13.91 1.99-4.3 4.72-8.11 8.2-11.43 3.48-3.31 7.62-5.92 12.42-7.82s9.94-2.86 15.4-2.86c6.96-.16 12.75 1.08 17.39 3.73s8.07 6.75 10.31 12.29c2.23 5.55 3.35 12.63 3.35 21.24v77.75h18.88v-78.74c0-12.25-1.62-22.35-4.84-30.3ZM925.22 73.51h18.63v129.66h-18.63zM944.85 21.97c-2.48-2.4-5.96-3.6-10.43-3.6s-7.95 1.24-10.43 3.73c-2.48 2.48-3.73 5.8-3.73 9.94s1.2 7.41 3.6 9.81q3.6 3.6 10.56 3.6c6.96 0 7.95-1.24 10.43-3.73 2.48-2.48 3.73-5.71 3.73-9.69 0-4.3-1.24-7.66-3.73-10.06M1095.62 103.57c-5.46-10.1-12.79-18.05-21.98-23.85s-19.58-8.69-31.17-8.69c-7.95 0-15.49 1.58-22.6 4.72-7.12 3.15-13.17 7.33-18.13 12.54-2.59 2.72-4.69 5.59-6.34 8.6l-.37-23.38H976.4v184.31h18.88v-77.49c1.58 2.52 3.47 4.97 5.71 7.32 5.13 5.38 11.34 9.73 18.63 13.04 7.28 3.31 14.99 4.97 23.1 4.97 11.59 0 22.02-2.94 31.3-8.82 9.27-5.88 16.56-13.87 21.86-23.97q7.95-15.15 7.95-34.53c0-19.38-2.73-24.67-8.2-34.77Zm-16.4 60.11c-3.97 7.45-9.36 13.33-16.15 17.64s-14.58 6.46-23.35 6.46-16.6-2.15-23.47-6.46c-6.87-4.3-12.3-10.19-16.27-17.64s-5.96-15.98-5.96-25.59 1.99-18.13 5.96-25.59c3.97-7.45 9.4-13.29 16.27-17.51s14.7-6.33 23.47-6.33 16.56 2.15 23.35 6.46 12.17 10.18 16.15 17.64c3.97 7.45 5.96 15.98 5.96 25.59s-1.99 17.88-5.96 25.34Z" class="cls-1"/><path d="M181.19 81.33h-5.03V52.56c4.85-1.94 8.28-6.67 8.28-12.22 0-7.27-5.89-13.16-13.16-13.16s-13.16 5.89-13.16 13.16c0 5.54 3.43 10.28 8.28 12.22v28.77h-19.23V25.37c4.85-1.94 8.28-6.67 8.28-12.22 0-7.27-5.89-13.16-13.16-13.16s-13.16 5.89-13.16 13.16c0 5.54 3.43 10.28 8.28 12.22v55.95h-19.23V63.11c4.85-1.94 8.28-6.67 8.28-12.22 0-7.27-5.89-13.16-13.16-13.16s-13.16 5.89-13.16 13.16c0 5.54 3.43 10.28 8.28 12.22v18.21h-5.03c-12.79 0-23.15 10.37-23.15 23.15v5.03H52.52c-1.94-4.85-6.67-8.28-12.22-8.28-7.27 0-13.16 5.89-13.16 13.16s5.89 13.16 13.16 13.16c5.54 0 10.28-3.43 12.22-8.28h27.72v19.23H25.37c-1.94-4.85-6.67-8.28-12.22-8.28-7.27 0-13.16 5.89-13.16 13.16s5.89 13.16 13.16 13.16c5.54 0 10.28-3.43 12.22-8.28h54.91v19.23H63.12c-1.94-4.85-6.67-8.28-12.22-8.28-7.27 0-13.16 5.89-13.16 13.16s5.89 13.16 13.16 13.16c5.54 0 10.28-3.43 12.21-8.28h17.16v5.02c0 12.79 10.37 23.15 23.15 23.15h5.03v28.69c-4.85 1.94-8.28 6.67-8.28 12.21 0 7.27 5.89 13.16 13.16 13.16s13.16-5.89 13.16-13.16c0-5.54-3.43-10.28-8.28-12.21v-28.69h19.23v55.87c-4.85 1.94-8.28 6.67-8.28 12.22 0 7.27 5.89 13.16 13.16 13.16s13.16-5.89 13.16-13.16c0-5.54-3.43-10.28-8.28-12.22v-55.87h19.23v18.12c-4.85 1.94-8.28 6.67-8.28 12.22 0 7.27 5.89 13.16 13.16 13.16s13.16-5.89 13.16-13.16c0-5.54-3.43-10.28-8.28-12.22v-18.12h5.03c12.79 0 23.15-10.37 23.15-23.15V104.5c0-12.79-10.37-23.15-23.15-23.15Zm-33.77 87.59a26.134 26.134 0 0 1-30.71-30.71c1.95-10.27 10.23-18.55 20.5-20.5a26.134 26.134 0 0 1 30.71 30.71c-1.95 10.27-10.23 18.55-20.5 20.5" style="fill:#56358b"/><path d="M370.6 282.19h27.1l-1.79 8.39h-18.16l-2.41 11.21h16.58l-1.86 8.39h-16.44l-2.54 11.76h18.5l-1.72 8.39h-27.45l10.18-48.15ZM414.21 330.34l4.54-21.22c.27-1.28.41-2.4.41-3.35s-.2-1.79-.62-2.36c-.41-.57-1.16-.85-2.26-.85-.82 0-1.64.2-2.46.61s-1.6.96-2.32 1.64c-.73.68-1.41 1.45-2.05 2.29s-1.18 1.7-1.64 2.57l-4.4 20.67h-8.53l7.29-34.39h6.47l-.34 6.05h.27c.6-.73 1.29-1.51 2.1-2.34.8-.82 1.73-1.58 2.79-2.27 1.05-.69 2.23-1.26 3.54-1.72s2.78-.69 4.44-.69q3.09 0 4.95 1.68t1.86 5.61c0 .69-.03 1.42-.1 2.2q-.105 1.17-.45 2.55l-4.95 23.32h-8.53ZM460.02 316.58c-.37 1.74-.63 3.51-.79 5.3s-.24 3.49-.24 5.09a37.094 37.094 0 0 0 .13 3.44h-6.26l-.96-5.92h-.27c-.51.82-1.16 1.64-1.96 2.44s-1.68 1.54-2.65 2.2c-.96.66-1.98 1.19-3.06 1.58s-2.19.58-3.34.58c-3.03 0-5.26-.99-6.71-2.96-1.44-1.97-2.17-4.61-2.17-7.91s.43-6.56 1.27-9.63c.85-3.07 2.17-5.78 3.96-8.12s4.05-4.21 6.77-5.61 5.97-2.1 9.73-2.1c1.6 0 3.36.15 5.26.45s3.75.7 5.54 1.21l-4.26 19.95Zm-16.17 7.7c.82 0 1.6-.17 2.34-.52.73-.35 1.41-.8 2.03-1.35q.93-.825 1.65-1.8c.72-.975.9-1.24 1.27-1.8l3.44-16.13c-.51-.23-1.09-.4-1.75-.52s-1.32-.17-1.96-.17c-1.65 0-3.12.5-4.4 1.49s-2.37 2.28-3.27 3.88c-.89 1.59-1.57 3.39-2.03 5.4q-.69 3.015-.69 6.06 0 2.22.72 3.84c.48 1.08 1.36 1.63 2.65 1.63ZM475.35 282.19h8.53L479.61 302h.27c.59-.82 1.28-1.64 2.06-2.44s1.63-1.54 2.57-2.2 1.95-1.2 3.05-1.62c1.1-.41 2.31-.62 3.63-.62 2.47 0 4.32.87 5.55 2.62 1.23 1.74 1.85 4.06 1.85 6.95 0 4.36-.61 8.18-1.82 11.49-1.22 3.3-2.81 6.07-4.78 8.29-1.97 2.23-4.2 3.9-6.67 5.02q-3.72 1.68-7.5 1.68c-2.8 0-5.26-.27-7.4-.79-2.13-.53-3.75-1.18-4.85-1.96l9.77-46.22Zm-.2 40.99c.5.37 1.12.62 1.85.76s1.53.21 2.4.21c1.14 0 2.33-.38 3.56-1.14q1.845-1.14 3.39-3.36c1.03-1.48 1.87-3.29 2.53-5.43s.99-4.58.99-7.3c0-3.18-.91-4.78-2.74-4.78-.91 0-1.81.26-2.7.76-.89.51-1.74 1.14-2.57 1.9q-1.23 1.14-2.22 2.46c-.66.88-1.19 1.71-1.61 2.49l-2.89 13.43ZM510.91 320.22c-.27 1.33-.26 2.32.03 2.96.3.64.79.97 1.48.97 1.28 0 2.5-.25 3.64-.76l-.21 6.07c-.83.5-2.03.91-3.59 1.22-1.57.32-3.11.48-4.63.48q-2.97 0-4.53-1.14t-1.56-4.23c0-1.05.14-2.27.41-3.64l8.46-39.96h8.53l-8.05 38.03ZM527.15 295.94h8.53l-7.29 34.39h-8.53zm1.3-9.76c0-1.51.49-2.68 1.48-3.51.99-.82 2.24-1.24 3.75-1.24s2.72.41 3.75 1.24 1.55 2 1.55 3.51-.52 2.63-1.55 3.47c-1.03.85-2.28 1.27-3.75 1.27s-2.76-.42-3.75-1.27-1.48-2.01-1.48-3.47M556.18 330.34l4.54-21.22c.27-1.28.41-2.4.41-3.35s-.2-1.79-.62-2.36c-.41-.57-1.16-.85-2.26-.85-.82 0-1.64.2-2.46.61s-1.6.96-2.32 1.64c-.73.68-1.41 1.45-2.05 2.29s-1.18 1.7-1.64 2.57l-4.4 20.67h-8.53l7.29-34.39h6.47l-.34 6.05h.27c.6-.73 1.29-1.51 2.1-2.34.8-.82 1.73-1.58 2.79-2.27 1.05-.69 2.23-1.26 3.54-1.72s2.78-.69 4.44-.69q3.09 0 4.95 1.68t1.86 5.61c0 .69-.03 1.42-.1 2.2q-.105 1.17-.45 2.55l-4.95 23.32h-8.53ZM599.44 330.34c-.6 2.71-1.4 4.99-2.41 6.84s-2.21 3.36-3.61 4.51-3 1.97-4.81 2.48c-1.81.5-3.82.76-6.02.76-1.6 0-3.04-.12-4.3-.34-1.26-.23-2.37-.5-3.34-.82-.96-.32-1.8-.65-2.51-1-.71-.34-1.27-.65-1.69-.93l3.16-6.26c.41.19.89.41 1.45.68q.825.39 1.89.78c.71.26 1.53.47 2.48.64.94.17 2.03.25 3.27.25 2.29 0 4.12-.71 5.47-2.14s2.33-3.39 2.92-5.88l1.31-5.39h-.27c-1.05 1.65-2.49 3.13-4.3 4.44s-3.86 1.96-6.16 1.96c-2.48 0-4.48-.93-6.02-2.79s-2.3-4.34-2.3-7.46c0-3.53.5-6.84 1.51-9.94s2.42-5.8 4.23-8.12c1.81-2.31 3.95-4.14 6.43-5.47s5.2-2 8.18-2c2.8 0 5.24.24 7.33.72s3.77 1.02 5.05 1.62l-6.95 32.88Zm-2.48-27.51c-.51-.28-1.15-.46-1.93-.55s-1.56-.14-2.34-.14c-1.47 0-2.83.44-4.09 1.32q-1.89 1.32-3.27 3.6c-.92 1.52-1.64 3.31-2.17 5.37-.53 2.05-.79 4.26-.79 6.61 0 1.48.31 2.65.93 3.53s1.43 1.31 2.44 1.31c.78 0 1.58-.24 2.41-.73.82-.48 1.62-1.1 2.37-1.83.76-.74 1.43-1.56 2.03-2.46s1.08-1.74 1.45-2.53zM627.99 295.94h4.47l1.38-6.46 9.08-2.55-1.93 9.01h8.05l-1.58 7.02h-7.98l-3.37 15.65c-.28 1.25-.41 2.26-.41 3.05 0 1.02.23 1.71.69 2.08s1.14.55 2.06.55 1.66-.1 2.37-.29 1.46-.51 2.24-.95v6.33c-.51.27-1.12.54-1.83.79s-1.48.46-2.31.62-1.68.29-2.55.38-1.68.14-2.42.14c-2.35 0-4.16-.54-5.42-1.62-1.27-1.08-1.9-2.72-1.9-4.93 0-.46.03-.94.1-1.45s.15-1.03.24-1.59l3.99-18.75h-4.61l1.65-7.02ZM666.85 330.34l4.13-19.44c.46-2.01.69-3.67.69-5 0-1.19-.23-2.04-.68-2.57s-1.16-.79-2.12-.79c-.87 0-1.78.27-2.74.82s-1.87 1.23-2.74 2.06c-.87.82-1.65 1.7-2.36 2.64s-1.24 1.79-1.61 2.57l-4.06 19.71h-8.53l10.18-48.15h8.53L661.21 302h.27c.6-.73 1.32-1.51 2.17-2.34.85-.82 1.79-1.58 2.82-2.27s2.15-1.26 3.37-1.72q1.815-.69 3.96-.69c2.2 0 3.91.55 5.12 1.65s1.82 3.05 1.82 5.85c0 1.7-.27 3.85-.83 6.47l-4.54 21.39h-8.53ZM709.56 327.03c-1.42 1.19-3.26 2.2-5.5 3.03-2.25.82-4.86 1.24-7.84 1.24-3.71 0-6.64-1.09-8.77-3.27s-3.2-5.22-3.2-9.12c0-3.67.57-6.98 1.72-9.94s2.65-5.47 4.51-7.53 3.96-3.66 6.29-4.78q3.51-1.68 7.02-1.68c1.88 0 3.5.24 4.85.72s2.47 1.15 3.34 1.99a7.9 7.9 0 0 1 1.92 2.92c.41 1.1.62 2.27.62 3.51q0 2.82-1.44 4.95c-.96 1.42-2.31 2.6-4.02 3.54-1.72.94-3.8 1.65-6.23 2.13q-3.645.72-7.98.72c-.37 0-.71-.01-1.03-.03s-.66-.03-1.03-.03c-.09.55-.16 1.05-.21 1.49s-.07.84-.07 1.21c0 2.08.54 3.63 1.62 4.64 1.08 1.02 2.6 1.53 4.57 1.53s3.83-.31 5.43-.92 2.82-1.22 3.65-1.83l1.79 5.5Zm-15.54-16.99c1.28 0 2.65-.04 4.09-.14 1.45-.09 2.79-.3 4.02-.64 1.24-.34 2.27-.83 3.1-1.49s1.24-1.54 1.24-2.67c0-.68-.25-1.36-.76-2.06s-1.56-1.05-3.16-1.05c-2.02 0-3.77.77-5.26 2.3s-2.58 3.45-3.27 5.75M742.93 282.19c.96-.14 2.02-.25 3.16-.34 1.15-.09 2.21-.16 3.2-.21s1.84-.07 2.58-.07c.41 0 1-.01 1.75-.03s1.59-.03 2.51-.03c2.8 0 5.34.36 7.64 1.07q3.435 1.065 5.88 3.27t3.78 5.64c.89 2.29 1.34 5.02 1.34 8.18 0 2.02-.17 4.19-.52 6.5-.34 2.32-.93 4.64-1.75 6.98a30 30 0 0 1-3.41 6.74c-1.44 2.16-3.26 4.06-5.43 5.71-2.18 1.65-4.79 2.98-7.84 3.99s-6.59 1.51-10.63 1.51c-.69 0-1.38-.01-2.06-.03q-1.035-.03-1.44-.03c-.92-.05-1.94-.1-3.06-.17l-3.37-.21c-1.12-.07-1.96-.15-2.51-.24l10.18-48.22Zm.41 40.3c.18.05.47.08.86.1s.81.05 1.27.07.9.03 1.31.03h.96c3.21 0 5.94-.72 8.18-2.17 2.25-1.45 4.07-3.26 5.47-5.43q2.1-3.27 3.03-7.08c.62-2.55.93-4.92.93-7.12q0-5.505-2.31-8.25c-1.54-1.83-4.09-2.75-7.67-2.75-.92 0-1.88.02-2.89.07s-1.79.11-2.34.2l-6.81 32.33ZM783.16 295.94h8.53l-7.29 34.39h-8.53zm1.31-9.76c0-1.51.49-2.68 1.48-3.51.99-.82 2.24-1.24 3.75-1.24s2.72.41 3.75 1.24 1.55 2 1.55 3.51-.52 2.63-1.55 3.47-2.28 1.27-3.75 1.27-2.76-.42-3.75-1.27-1.48-2.01-1.48-3.47M819.62 330.34c-.6 2.71-1.4 4.99-2.41 6.84s-2.21 3.36-3.61 4.51-3 1.97-4.81 2.48c-1.81.5-3.82.76-6.02.76-1.6 0-3.04-.12-4.3-.34-1.26-.23-2.37-.5-3.34-.82-.96-.32-1.8-.65-2.51-1-.71-.34-1.27-.65-1.69-.93l3.16-6.26c.41.19.89.41 1.45.68q.825.39 1.89.78c.71.26 1.53.47 2.48.64.94.17 2.03.25 3.27.25 2.29 0 4.12-.71 5.47-2.14s2.33-3.39 2.92-5.88l1.31-5.39h-.27c-1.05 1.65-2.49 3.13-4.3 4.44s-3.86 1.96-6.16 1.96c-2.48 0-4.48-.93-6.02-2.79s-2.3-4.34-2.3-7.46c0-3.53.5-6.84 1.51-9.94s2.42-5.8 4.23-8.12c1.81-2.31 3.95-4.14 6.43-5.47s5.2-2 8.18-2c2.8 0 5.24.24 7.33.72s3.77 1.02 5.05 1.62l-6.95 32.88Zm-2.47-27.51c-.51-.28-1.15-.46-1.93-.55s-1.56-.14-2.34-.14c-1.47 0-2.83.44-4.09 1.32q-1.89 1.32-3.27 3.6c-.92 1.52-1.64 3.31-2.17 5.37-.53 2.05-.79 4.26-.79 6.61 0 1.48.31 2.65.93 3.53s1.43 1.31 2.44 1.31c.78 0 1.58-.24 2.41-.73.82-.48 1.62-1.1 2.37-1.83.76-.74 1.43-1.56 2.03-2.46s1.08-1.74 1.45-2.53zM835.51 295.94h8.53l-7.29 34.39h-8.53zm1.31-9.76c0-1.51.49-2.68 1.48-3.51.99-.82 2.24-1.24 3.75-1.24s2.72.41 3.75 1.24 1.55 2 1.55 3.51-.52 2.63-1.55 3.47c-1.03.85-2.28 1.27-3.75 1.27s-2.76-.42-3.75-1.27-1.48-2.01-1.48-3.47M848.38 295.94h4.47l1.38-6.46 9.08-2.55-1.93 9.01h8.05l-1.58 7.02h-7.98l-3.37 15.65c-.28 1.25-.41 2.26-.41 3.05 0 1.02.23 1.71.69 2.08s1.14.55 2.06.55 1.66-.1 2.37-.29 1.46-.51 2.24-.95v6.33c-.51.27-1.12.54-1.83.79s-1.48.46-2.31.62-1.68.29-2.55.38-1.68.14-2.42.14c-2.35 0-4.16-.54-5.42-1.62-1.27-1.08-1.9-2.72-1.9-4.93 0-.46.03-.94.1-1.45s.15-1.03.24-1.59l3.99-18.75h-4.61l1.65-7.02ZM896.52 316.58c-.37 1.74-.63 3.51-.79 5.3s-.24 3.49-.24 5.09a37.094 37.094 0 0 0 .13 3.44h-6.26l-.96-5.92h-.27c-.51.82-1.16 1.64-1.96 2.44s-1.68 1.54-2.65 2.2c-.96.66-1.98 1.19-3.06 1.58s-2.19.58-3.34.58c-3.03 0-5.26-.99-6.71-2.96-1.44-1.97-2.17-4.61-2.17-7.91s.43-6.56 1.27-9.63c.85-3.07 2.17-5.78 3.96-8.12s4.05-4.21 6.77-5.61 5.97-2.1 9.73-2.1c1.6 0 3.36.15 5.26.45s3.75.7 5.54 1.21l-4.26 19.95Zm-16.16 7.7c.82 0 1.6-.17 2.34-.52.73-.35 1.41-.8 2.03-1.35q.93-.825 1.65-1.8c.72-.975.9-1.24 1.27-1.8l3.44-16.13c-.51-.23-1.09-.4-1.75-.52s-1.32-.17-1.96-.17c-1.65 0-3.12.5-4.4 1.49s-2.37 2.28-3.27 3.88c-.89 1.59-1.57 3.39-2.03 5.4q-.69 3.015-.69 6.06 0 2.22.72 3.84c.48 1.08 1.36 1.63 2.65 1.63ZM912.21 320.22c-.27 1.33-.26 2.32.03 2.96.3.64.79.97 1.48.97 1.28 0 2.5-.25 3.64-.76l-.21 6.07c-.83.5-2.03.91-3.59 1.22-1.57.32-3.11.48-4.63.48q-2.97 0-4.53-1.14t-1.56-4.23c0-1.05.14-2.27.41-3.64l8.46-39.96h8.53l-8.05 38.03ZM952.1 309.01l-.98 8.53h.34l2.68-8.67 13.6-26.69h6.04l1.99 26.83-.89 8.53h.35l2.79-8.67 11.28-26.69h9.56l-22.88 48.49h-6.25l-2.54-26.76.55-7.36h-.41l-2.61 7.43-13.67 26.69h-6.25l-2.33-48.49h9.42zM991.1 319.19c0-3.62.52-6.92 1.55-9.91 1.03-2.98 2.41-5.53 4.13-7.64s3.72-3.75 5.99-4.92 4.64-1.75 7.12-1.75c2.2 0 4.06.34 5.57 1.03s2.74 1.6 3.68 2.75a10.6 10.6 0 0 1 2.03 3.92c.41 1.47.62 2.98.62 4.54 0 3.58-.51 6.84-1.51 9.8-1.01 2.96-2.36 5.49-4.06 7.6s-3.67 3.75-5.92 4.92-4.61 1.75-7.09 1.75c-2.16 0-3.99-.36-5.5-1.07q-2.265-1.065-3.75-2.79c-.99-1.15-1.71-2.44-2.17-3.89s-.69-2.9-.69-4.37Zm8.74-1.14c0 4.15 1.49 6.23 4.47 6.23 1.1 0 2.18-.48 3.23-1.45q1.575-1.455 2.82-3.81c.83-1.57 1.48-3.35 1.96-5.33s.72-3.97.72-5.95q0-2.775-.93-4.26c-.93-1.485-1.78-1.49-3.47-1.49-1.1 0-2.18.46-3.23 1.38s-1.99 2.14-2.82 3.63c-.83 1.5-1.49 3.22-1.99 5.16-.51 1.94-.76 3.9-.76 5.88ZM1037.74 295.94l.07 6.18h.27c1.01-1.87 2.24-3.45 3.68-4.76s3.27-1.96 5.47-1.96c.96 0 2.11.19 3.44.56l-2.13 7.49c-.46-.14-.89-.25-1.31-.34-.41-.09-.85-.14-1.31-.14-1.88 0-3.61.61-5.19 1.81-1.58 1.21-2.79 2.61-3.61 4.21l-4.47 21.35h-8.53l7.29-34.39h6.33ZM1058.1 320.22c-.27 1.33-.26 2.32.03 2.96.3.64.79.97 1.48.97 1.28 0 2.5-.25 3.64-.76l-.21 6.07c-.83.5-2.03.91-3.59 1.22-1.57.32-3.11.48-4.63.48q-2.97 0-4.53-1.14t-1.56-4.23c0-1.05.14-2.27.41-3.64l8.46-39.96h8.53l-8.05 38.03ZM1095.59 318.23c-.41 1.92-.71 3.71-.9 5.36a43 43 0 0 0-.27 4.68v1.07c0 .34.02.7.07 1.07h-5.85l-.96-5.92h-.27c-.5.82-1.16 1.64-1.96 2.44s-1.68 1.54-2.64 2.2a13.6 13.6 0 0 1-3.05 1.58c-1.07.39-2.14.58-3.19.58-2.83 0-5.02-1.01-6.55-3.03s-2.3-4.79-2.3-8.32c0-3.21.43-6.31 1.3-9.29s2.09-5.63 3.67-7.94c1.58-2.32 3.5-4.16 5.76-5.54s4.77-2.06 7.51-2.06c1.33 0 2.42.08 3.29.24s1.69.43 2.47.79l2.96-13.96h8.53l-7.63 36.04Zm-5.37-15.06c-.55-.37-1.17-.63-1.88-.8-.71-.16-1.65-.24-2.84-.24-1.37 0-2.61.47-3.73 1.42s-2.06 2.21-2.84 3.81c-.78 1.59-1.38 3.43-1.81 5.5-.43 2.08-.65 4.25-.65 6.51 0 1.34.3 2.49.89 3.46s1.43 1.45 2.53 1.45c.68 0 1.38-.17 2.08-.52s1.37-.8 1.98-1.35 1.19-1.15 1.71-1.8c.53-.65.95-1.24 1.26-1.8z" class="cls-1"/></g></svg>