<svg xmlns="http://www.w3.org/2000/svg" viewBox="0 0 699.32 192.7"><defs><style>.cls-1{fill:#f78d1e}</style></defs><title>Logo_XWiki</title><g id="Layer_2" data-name="Layer 2"><g id="Layer_1-2" data-name="Layer 1"><path d="M306.76 17.49c2.27-6.37 6.52-8.26 12.75-8.26s10.48 1.89 12.74 8.26L378.7 153.2h.57l26.34-134.29c1.42-6.85 5.95-9.68 13.59-9.68 7.09 0 11.34 4.25 11.34 9.44a46 46 0 0 1-1.42 10.62l-30.59 137.13c-1.7 7.32-5.38 13.69-17.84 13.69-9.63 0-15.58-2.12-19.55-13.69l-41.35-123.2h-.56l-41.35 123.2c-4 11.57-9.92 13.69-19.55 13.69-12.46 0-16.14-6.37-17.84-13.69L209.9 29.29a46 46 0 0 1-1.42-10.62c0-5.19 4.25-9.44 11.33-9.44 7.65 0 12.18 2.83 13.6 9.68l26.34 134.29h.56ZM479 169c0 6.84-4.82 11.09-12.46 11.09S454 175.86 454 169V20.32c0-6.84 4.82-11.09 12.47-11.09S479 13.48 479 20.32ZM536.75 169c0 6.84-4.82 11.09-12.47 11.09s-12.46-4.25-12.46-11.09V20.32c0-6.84 4.82-11.09 12.46-11.09s12.47 4.25 12.47 11.09v61.37l86.38-65.85c4.53-3.54 8.5-6.61 13.6-6.61 6.23 0 10.76 3.54 10.76 9s-2.27 7.31-5.1 9.44l-82.7 62.07L650 162.41c4 3.07 5.1 5.43 5.1 8.49 0 5-5.39 9.21-12.18 9.21-3.68 0-7.09-.47-12.18-4.48l-94-76.95ZM699.32 169c0 6.84-4.82 11.09-12.47 11.09s-12.46-4.25-12.46-11.09V20.32c0-6.84 4.82-11.09 12.46-11.09s12.47 4.25 12.47 11.09Z" class="cls-1"/><path d="M36.1 103.1a6.75 6.75 0 0 0 6.74-6.75 6.75 6.75 0 0 0-6.74-6.75H6.75A6.75 6.75 0 0 0 0 96.35a6.75 6.75 0 0 0 6.75 6.75Z" style="fill:#008fd4"/><path d="M89.6 156.61a6.75 6.75 0 0 1 6.75-6.75 6.75 6.75 0 0 1 6.75 6.75V186a6.75 6.75 0 0 1-6.75 6.75A6.75 6.75 0 0 1 89.6 186Z" style="fill:#ed1c24"/><path d="M89.6 6.74A6.75 6.75 0 0 1 96.35 0a6.75 6.75 0 0 1 6.75 6.74v29.35a6.75 6.75 0 0 1-6.75 6.75 6.75 6.75 0 0 1-6.75-6.75Z" style="fill:#8cc63f"/><path d="m112.36 96 56.72-65.91a12 12 0 1 0-18.26-15.71L96.47 77.5 42.12 14.34a12 12 0 1 0-18.26 15.71L80.58 96l-56.72 65.87a12 12 0 1 0 18.26 15.72l54.35-63.16 54.35 63.16a12 12 0 0 0 18.26-15.72Z" style="fill:#626366"/><path d="M185.17 103.25a6.75 6.75 0 0 0 6.74-6.75 6.75 6.75 0 0 0-6.74-6.75h-29.35a6.75 6.75 0 0 0-6.75 6.75 6.75 6.75 0 0 0 6.75 6.75Z" class="cls-1"/></g></g></svg>