<svg xmlns="http://www.w3.org/2000/svg" width="799.95" height="235.4" viewBox="0 0 799.95 235.4"><path d="M347.53 69.83c-27.36 0-49.62 22.26-49.62 49.62v26.07h-13.46v23.54h13.46v66.34h23.55v-66.34h26.07c27.36 0 49.62-22.26 49.62-49.62s-22.26-49.62-49.62-49.62zm0 75.69h-26.07v-26.07c0-14.38 11.7-26.07 26.07-26.07s26.07 11.7 26.07 26.07-11.7 26.07-26.07 26.07M99.24 69.91V0H75.69v69.91H49.62C22.26 69.91 0 92.17 0 119.53s22.26 49.62 49.62 49.62 49.62-22.26 49.62-49.62V93.46h12.04V69.91Zm-23.55 49.62c0 14.38-11.7 26.07-26.07 26.07s-26.07-11.7-26.07-26.07 11.7-26.07 26.07-26.07h26.07ZM787.9 69.91V0h-23.54v69.91h-26.07c-27.36 0-49.62 22.26-49.62 49.62s22.26 49.62 49.62 49.62 49.62-22.26 49.62-49.62V93.46h12.04V69.91h-12.04zm-23.54 49.62c0 14.38-11.7 26.07-26.07 26.07s-26.07-11.7-26.07-26.07 11.7-26.07 26.07-26.07h26.07zM651.48 32.11h24.06v24.06h-24.06zm0 38.8h24.06v97.01h-24.06zm-44.81 91.87q-6.21-7.08-6.21-18.33V13.49h24.06v121.06c0 5.18.29 8.83.87 10.96s1.61 3.43 3.1 3.88 4.04.68 7.66.68l-2.13 19.79h-8.73q-12.42 0-18.63-7.08zm-95.77.29c-7.5-4.53-13.26-10.61-17.27-18.24s-6.01-16.04-6.01-25.22 2-17.65 6.01-25.42c4.01-7.76 9.77-13.9 17.27-18.43s16.36-6.79 26.58-6.79 19.08 2.26 26.58 6.79 13.26 10.67 17.27 18.43 6.02 16.24 6.02 25.42-2.01 17.59-6.02 25.22-9.77 13.71-17.27 18.24-16.36 6.79-26.58 6.79-19.08-2.26-26.58-6.79m45.11-21.34c4.46-5.56 6.69-12.93 6.69-22.12s-2.23-16.78-6.69-22.41-10.64-8.44-18.53-8.44-14.07 2.81-18.53 8.44q-6.69 8.445-6.69 22.41c0 9.31 2.23 16.56 6.69 22.12s10.64 8.34 18.53 8.34 14.07-2.78 18.53-8.34m-134.06 26.38q-7.665-1.74-15.81-5.43l2.13-20.57c5.43 3.23 10.51 5.66 15.23 7.27 4.72 1.62 9.6 2.43 14.65 2.43 9.83 0 14.75-3.23 14.75-9.7 0-3.49-1.29-6.18-3.88-8.05s-7.24-4.11-13.97-6.69c-9.57-3.49-16.62-7.47-21.15-11.93s-6.79-10.51-6.79-18.14c0-8.41 3.23-15.23 9.7-20.47q9.705-7.86 26.19-7.86c10.99 0 21.02 2.52 30.07 7.57l-2.13 20.57c-4.92-3.36-9.54-5.95-13.87-7.76s-8.89-2.72-13.68-2.72q-6.21 0-9.6 2.52c-2.26 1.68-3.4 4.07-3.4 7.18 0 2.46.68 4.46 2.04 6.01s3.27 2.94 5.72 4.17c2.46 1.23 6.53 2.94 12.22 5.14 9.44 3.62 16.23 7.6 20.37 11.93 4.14 4.34 6.21 10.12 6.21 17.37 0 9.19-3.3 16.3-9.9 21.34s-15.98 7.57-28.13 7.57c-6.21 0-11.87-.58-16.98-1.75zm-218.25-5.04c-7.5-4.53-13.26-10.61-17.27-18.24s-6.01-16.04-6.01-25.22 2-17.65 6.01-25.42c4.01-7.76 9.77-13.9 17.27-18.43s16.36-6.79 26.58-6.79 19.08 2.26 26.58 6.79 13.26 10.67 17.27 18.43 6.02 16.24 6.02 25.42-2.01 17.59-6.02 25.22-9.77 13.71-17.27 18.24-16.36 6.79-26.58 6.79-19.08-2.26-26.58-6.79m45.11-21.34c4.46-5.56 6.69-12.93 6.69-22.12s-2.23-16.78-6.69-22.41-10.64-8.44-18.53-8.44-14.07 2.81-18.53 8.44q-6.69 8.445-6.69 22.41c0 9.31 2.23 16.56 6.69 22.12s10.64 8.34 18.53 8.34 14.07-2.78 18.53-8.34M123.96 69.91h22.51l.58 11.28c2.84-3.23 6.5-6.08 10.96-8.54q6.69-3.69 14.07-3.69c1.55 0 2.97.13 4.27.39l-1.75 23.67c-2.46-.64-5.24-.97-8.34-.97-4.01 0-7.7.94-11.06 2.81-3.37 1.88-5.76 4.17-7.18 6.89v66.16h-24.06z" style="fill:#fff"/></svg>