<svg xmlns="http://www.w3.org/2000/svg" width="160" height="68" fill="none" aria-label="Smile" viewBox="0 0 160 68"><g clip-path="url(#a)" style="fill:#fff"><path d="M27.78 16.636c4.358 0 8.863 2.141 12.335 5.168l-4.949 4.503c-2.364-1.476-5.761-2.584-7.46-2.584h-.296c-1.403 0-4.358.296-4.358 2.51 0 1.698 2.512 1.92 4.432 2.14l1.994.149c6.353.738 11.523 3.1 11.523 9.892 0 6.053-5.17 9.744-12.409 9.818h-.221c-6.279 0-10.858-2.953-13.517-5.98l4.948-4.503c1.33 1.255 4.358 3.396 8.569 3.396h.221c3.176-.074 4.875-1.034 4.875-2.731 0-2.215-2.511-2.584-5.023-2.88l-2.068-.22c-5.687-.592-10.858-3.028-10.858-8.933 0-6.054 5.17-9.67 11.892-9.818h.37zm40.625 31.301V30.589l-8.125 9.966-8.125-9.966v17.348h-7.534V16.932h4.506L60.28 30.736l11.154-13.804h4.505v31.005zm28.734 0V16.932h7.534v23.844h12.926v7.16zm45.058-19.12v7.16h-12.483v4.799h13.665v7.16H122.18V16.933h21.199v7.087h-13.665v4.798zM90.196 16.858h-7.534v31.004h7.534z" style="fill:#fff;fill-opacity:.54897493"/><path fill="#ff8054" d="M60.356 46.165c-5.318 0-9.676-4.356-9.676-9.67a.74.74 0 0 1 .738-.739c.37 0 .739.37.739.738 0 4.503 3.693 8.12 8.125 8.12 4.506 0 8.125-3.69 8.125-8.12a.74.74 0 0 1 .739-.738.74.74 0 0 1 .738.738c.148 5.315-4.21 9.67-9.528 9.67m7.605-18.159c-1.92 0-3.84-.812-5.244-2.363-.295-.295-.295-.812.074-1.033.295-.296.812-.296 1.034.074 1.994 2.214 5.392 2.51 7.46.59.296-.295.813-.295 1.034.074.296.295.296.812-.073 1.034-1.182 1.107-2.733 1.624-4.285 1.624m-15.656.001c-1.625 0-3.176-.591-4.358-1.698a.79.79 0 0 1-.074-1.034.79.79 0 0 1 1.034-.074 5.13 5.13 0 0 0 3.693 1.255c1.404-.074 2.733-.738 3.693-1.845a.79.79 0 0 1 1.034-.074.79.79 0 0 1 .074 1.033c-1.256 1.403-2.954 2.215-4.727 2.289 0 .148-.148.148-.37.148M155.934 39.3a.74.74 0 0 1-.739-.738c0-.664-.147-1.698-.517-2.067-.369-.37-1.255-.517-1.551-.517a.74.74 0 0 1-.738-.738.74.74 0 0 1 .738-.738c.443 0 1.256-.148 1.551-.443.296-.295.444-1.403.444-2.141a.74.74 0 0 1 .738-.738.74.74 0 0 1 .739.738c0 .664.148 1.772.443 2.14.369.37 1.182.444 1.551.444a.74.74 0 0 1 .739.738c0 .443-.296.738-.739.738s-1.255.148-1.551.517c-.295.295-.443 1.403-.517 2.067.148.369-.222.738-.591.738m-.369-3.986c.074.074.148.074.148.147.073.074.147.148.147.222.074-.074.148-.148.148-.222.074-.073.148-.073.148-.147-.074-.074-.148-.074-.148-.148-.074-.074-.074-.147-.148-.147-.074.073-.074.147-.147.22 0-.073-.074 0-.148.075m-38.854-19.637a.74.74 0 0 1-.738-.738c0-.665-.148-1.698-.517-2.067-.37-.37-1.256-.517-1.551-.517a.74.74 0 0 1-.739-.738.74.74 0 0 1 .739-.738c.443 0 1.255-.148 1.551-.443.295-.296.443-1.403.443-2.141a.74.74 0 0 1 1.477 0c0 .664.148 1.772.443 2.14.37.37 1.33.444 1.552.444a.74.74 0 0 1 .738.738c0 .369-.295.664-.591.738h-.147c-.444 0-1.256.148-1.552.517-.295.295-.443 1.402-.517 2.067.148.443-.147.738-.591.738m-.369-3.986c.074.073.148.073.148.147.074.074.148.148.148.222.073-.074.147-.148.147-.222.074-.074.148-.074.148-.147-.074-.074-.148-.074-.148-.148-.074-.074-.074-.148-.147-.148-.074.074-.074.148-.148.222 0 0-.074 0-.148.074M81.48 46.977a.74.74 0 0 1-.74-.738c0-.665-.147-1.698-.517-2.067-.369-.37-1.181-.517-1.55-.517a.74.74 0 0 1-.74-.738.74.74 0 0 1 .74-.738c.442 0 1.255-.148 1.55-.443s.444-1.403.444-2.141a.74.74 0 0 1 .738-.738.74.74 0 0 1 .739.738c0 .664.148 1.772.443 2.14.37.37 1.256.444 1.551.444a.74.74 0 0 1 .739.738c0 .369-.296.664-.665.738h-.074c-.443 0-1.256.148-1.551.517-.295.295-.443 1.402-.517 2.067.148.443-.222.738-.59.738m-.37-3.986c.074.074.147.074.147.147.074.074.148.148.148.222.074-.074.148-.148.148-.222.074-.073.148-.073.148-.147-.074-.074-.148-.074-.148-.148-.074-.074-.074-.148-.148-.148-.074.074-.074.148-.148.222 0 0-.073 0-.147.074M35.758 14.717a.74.74 0 0 1-.739-.738c0-.96-.221-2.658-.812-3.174-.665-.665-2.068-.812-2.511-.812a.74.74 0 0 1-.739-.739.74.74 0 0 1 .739-.738c.517 0 1.92-.147 2.511-.738.59-.59.813-2.51.813-3.322a.74.74 0 0 1 .738-.738.74.74 0 0 1 .739.738c0 1.034.221 2.805.812 3.322.665.664 2.069.812 2.512.812a.74.74 0 0 1 .738.738c0 .443-.295.739-.738.739-.517 0-1.92.147-2.512.812-.59.59-.812 2.436-.812 3.248 0 .221-.37.59-.739.59M34.65 9.254c.222.148.443.296.591.443.222.222.37.443.517.665.148-.296.296-.517.517-.665.148-.147.37-.369.591-.443-.221-.147-.443-.295-.59-.442q-.333-.332-.444-.665l-.443.665c-.296.147-.517.295-.739.442m25.999.664a.74.74 0 0 1-.739-.738V5.268a.74.74 0 0 1 .739-.739.74.74 0 0 1 .738.739v3.838c0 .443-.295.812-.738.812m7.091 1.477c-.147 0-.369-.074-.443-.148-.295-.295-.37-.738-.074-1.033l2.438-2.953c.295-.295.738-.37 1.034-.074.295.295.37.738.074 1.034l-2.438 2.952a.84.84 0 0 1-.59.222m-14.33-.074a.84.84 0 0 1-.59-.221l-2.586-2.88c-.295-.295-.222-.811.074-1.033.295-.295.812-.221 1.034.074l2.585 2.879c.296.295.222.812-.074 1.033-.074.148-.221.148-.443.148m58.426 26.649c.517-.073 3.546-.59 5.392-.885 1.699-.295 2.659-1.698 2.438-3.248-.222-1.55-1.699-2.584-3.25-2.289-.222-1.55-1.699-2.583-3.176-2.362-1.552.222-2.586 1.624-2.29 3.322.295 1.92.812 4.872.886 5.463m-4.283-11.442a.8.8 0 0 1-.517-.222.79.79 0 0 1-.074-1.033c2.363-2.658 6.352-2.88 8.863-.59a.79.79 0 0 1 .074 1.033.79.79 0 0 1-1.034.074c-1.92-1.698-4.875-1.477-6.722.516-.221.148-.443.222-.59.222M92.781 24.83a2.96 2.96 0 0 1 2.955-2.953 2.96 2.96 0 0 1 2.954 2.953 2.96 2.96 0 0 1-2.954 2.953 2.96 2.96 0 0 1-2.955-2.953m10.118 17.054c-.221 0-.443-.074-.59-.296-.222-.369-.148-.812.147-1.033l3.324-2.51-2.068-2.51a.79.79 0 0 1 .074-1.034l1.92-1.845-3.102-2.51c-.295-.295-.369-.738-.074-1.033.296-.296.739-.37 1.034-.074l3.767 3.1c.148.148.296.37.296.517a.84.84 0 0 1-.222.59l-1.994 1.92 2.142 2.584c.148.147.221.369.148.59 0 .222-.148.37-.296.517l-3.989 2.953c-.221 0-.369.073-.517.073m4.285-19.784a.88.88 0 0 1-.665-.37c-.221-.368-.148-.811.222-1.033l3.988-2.657c.37-.222.813-.148 1.035.221.221.37.147.812-.222 1.034l-3.989 2.657a.56.56 0 0 1-.369.148M22.609 1.577c0 .665-.59 1.255-1.256 1.255-.664 0-1.255-.59-1.255-1.255s.59-1.255 1.255-1.255c.739 0 1.256.59 1.256 1.255m109.762.148c0 .664-.591 1.255-1.256 1.255s-1.256-.59-1.256-1.255S130.45.47 131.115.47s1.256.517 1.256 1.255M92.78 12.06c0 .664-.59 1.255-1.255 1.255s-1.256-.59-1.256-1.255.591-1.255 1.256-1.255 1.256.59 1.256 1.255m56.504 29.676c0 .664-.591 1.255-1.256 1.255s-1.256-.591-1.256-1.255c0-.665.591-1.255 1.256-1.255.739 0 1.256.516 1.256 1.255m-72.09-6.571c0 .665-.59 1.255-1.256 1.255-.664 0-1.255-.59-1.255-1.255s.59-1.255 1.255-1.255c.665.074 1.256.59 1.256 1.255m62.119-6.275a.84.84 0 0 1-.591-.22c-.222-.222-.222-.517-.148-.813l1.33-3.026c-1.256-1.403-1.921-3.1-1.921-4.872 0-4.356 4.063-7.9 9.012-7.9s9.011 3.544 9.011 7.9-4.062 7.898-9.011 7.898c-1.108 0-2.216-.147-3.25-.516l-4.284 1.476c0 .074-.074.074-.148.074m7.756-15.354c-4.137 0-7.534 2.879-7.534 6.423 0 1.55.664 3.026 1.846 4.207.222.222.296.59.148.812l-.813 1.846 2.881-1.034a.63.63 0 0 1 .517 0c.96.37 1.921.517 2.955.517 4.136 0 7.534-2.879 7.534-6.422-.074-3.47-3.398-6.349-7.534-6.349" style="fill:#fff"/><path fill="#ff8054" d="M143.082 20.106a.82.82 0 0 1 .813-.812.82.82 0 0 1 .812.812.82.82 0 0 1-.812.812.82.82 0 0 1-.813-.812m2.955 0a.82.82 0 0 1 .813-.812.82.82 0 0 1 .812.812.82.82 0 0 1-.812.812.82.82 0 0 1-.813-.812m2.881 0a.82.82 0 0 1 .812-.812.82.82 0 0 1 .813.812.82.82 0 0 1-.813.812.82.82 0 0 1-.812-.812m-67.143 6.127a.82.82 0 0 1-.812.812.82.82 0 0 1-.813-.812.82.82 0 0 1 .813-.812.82.82 0 0 1 .812.812M10.94 23.945a.82.82 0 0 1-.813.812.82.82 0 0 1-.813-.812.82.82 0 0 1 .813-.812.82.82 0 0 1 .813.812M.82 45.796a.84.84 0 0 1-.59-.222.84.84 0 0 1-.222-.59c0-.148.443-3.322 1.994-4.799 1.034-1.033 2.733-.96 3.693.074.517.517.739 1.181.739 1.846 0 .738-.295 1.329-.813 1.845-1.55 1.698-4.58 1.846-4.8 1.846q.11 0 0 0m3.103-4.872c-.296 0-.591.073-.813.295-.665.664-1.108 1.92-1.403 2.879.886-.148 2.142-.517 2.954-1.329.222-.221.37-.517.37-.812s-.074-.59-.296-.812c-.222-.074-.517-.221-.812-.221" style="fill:#fff"/><path fill="#ff8054" d="M7.543 41.884c-.148 0-.296-.074-.444-.148-.147-.147-.295-.295-.295-.517a2.73 2.73 0 0 0-.59-1.328q-.555-.554-1.33-.665c-.222 0-.37-.147-.518-.295-.147-.148-.147-.37-.147-.59.517-2.215 1.55-5.316 3.988-7.678 4.21-4.134 10.637-4.208 10.932-4.208.222 0 .37.074.517.222a.8.8 0 0 1 .222.516c0 .296-.148 6.792-4.358 10.926-2.364 2.362-5.54 3.396-7.756 3.765zm-1.7-3.987c.518.222 1.035.517 1.404.886.37.37.665.886.813 1.403 1.92-.443 4.432-1.403 6.278-3.248 2.955-2.88 3.693-7.235 3.841-9.006-1.773.147-6.13.885-9.011 3.765-1.847 1.845-2.807 4.281-3.324 6.2m8.569-3.69c-.591 0-1.182-.222-1.699-.739-.443-.443-.665-1.033-.665-1.698 0-.664.222-1.18.739-1.624a2.3 2.3 0 0 1 1.625-.664c.665 0 1.182.221 1.625.738.886.96.886 2.436 0 3.322a2.3 2.3 0 0 1-1.625.664m0-3.249a.84.84 0 0 0-.591.222.84.84 0 0 0-.222.59c0 .222.074.443.222.59.296.296.886.37 1.182 0 .295-.294.37-.885 0-1.18-.148-.074-.37-.222-.591-.222" style="fill:#fff"/><path fill="#ff8054" d="M5.4 37.38h-.222L.894 36.199c-.295-.074-.443-.296-.517-.517-.074-.295 0-.517.222-.738l3.102-3.1a.67.67 0 0 1 .517-.222l3.398-.074c.443 0 .739.295.739.738s-.296.738-.739.738l-3.102.074-1.995 1.92 3.029.885c.37.148.665.517.517.96 0 .295-.296.517-.665.517m5.096 8.342h-.222c-.296-.074-.443-.296-.517-.517l-1.108-4.134c-.074-.37.148-.812.517-.886.37-.074.812.148.886.517l.739 2.879 1.994-1.92.074-2.805c0-.443.37-.738.813-.738s.738.37.738.812l-.147 3.1a.67.67 0 0 1-.222.517l-3.102 3.1c-.074 0-.222.075-.444.075m40.849 20.965v-5.831h1.108v5.831zm3.84 0v-1.181h.886v1.181zm7.386-4.872h-1.846v4.799h-1.108v-4.799H57.77v-.96h4.874v.96zm5.762 4.872v-5.831h1.108v5.831zm7.458-4.355c-.073-.074-.073-.074-.221-.148-.074-.073-.222-.147-.37-.221-.147-.074-.295-.148-.443-.148-.147-.074-.369-.074-.517-.074-.295 0-.517.074-.664.148a.67.67 0 0 0-.222.517c0 .147 0 .221.074.295l.221.221c.074.074.222.148.444.148.147.074.369.074.59.148.296.074.518.147.813.221.222.074.443.222.59.296.149.147.296.295.37.442s.148.443.148.665c0 .295-.074.59-.148.812-.147.221-.295.369-.443.517-.222.147-.443.221-.665.295-.295.074-.517.074-.812.074q-.665 0-1.33-.222c-.443-.147-.812-.295-1.182-.59l.37-.738c.074.073.147.147.295.221l.443.222c.148.073.37.147.591.22.222.075.444.075.665.075.591 0 .96-.222.96-.59 0-.148 0-.222-.074-.296a1 1 0 0 0-.295-.222c-.148-.073-.295-.147-.443-.147-.222-.074-.37-.148-.591-.148a9 9 0 0 1-.739-.221c-.221-.074-.37-.222-.517-.296a1.5 1.5 0 0 1-.295-.443c-.074-.147-.074-.369-.074-.59 0-.295.074-.59.148-.812.073-.222.295-.443.443-.59.221-.148.443-.296.665-.37.221-.074.517-.147.812-.147q.665 0 1.108.221.555.222.886.443zm9.31 4.355c-.444 0-.813-.074-1.182-.221a2 2 0 0 1-.887-.665c-.221-.295-.443-.59-.59-.96a3 3 0 0 1-.222-1.107q0-.553.221-1.107c.148-.37.37-.665.591-.96.222-.295.591-.517.887-.664q.553-.222 1.108-.222c.443 0 .812.074 1.181.296q.555.221.887.664c.221.295.443.59.59.96q.222.553.222 1.107t-.221 1.107c-.148.37-.37.665-.591.96a2 2 0 0 1-.887.664c-.369.074-.738.148-1.108.148m-1.7-2.953c0 .222.074.517.148.738.074.222.222.443.37.591.147.148.295.295.517.443.221.074.443.147.738.147.296 0 .517-.073.739-.147.221-.148.37-.295.517-.443.148-.222.222-.37.295-.664.074-.222.148-.443.148-.739 0-.221-.074-.516-.148-.738a1.6 1.6 0 0 0-.369-.59 3.2 3.2 0 0 0-.517-.443c-.221-.074-.443-.148-.739-.148-.295 0-.517.074-.738.148a3.2 3.2 0 0 0-.517.443c-.148.147-.222.369-.296.59-.147.37-.147.59-.147.812m7.018 2.953v-5.831h2.438c.295 0 .517.073.738.147.222.148.443.295.591.443s.296.37.37.59c.073.222.147.444.147.739 0 .221-.074.517-.148.738a1.6 1.6 0 0 1-.369.59c-.148.148-.37.296-.59.444-.222.073-.444.147-.74.147H91.6v1.92zm1.182-2.952h1.33a.67.67 0 0 0 .516-.222q.222-.222.222-.664c0-.148 0-.296-.074-.37-.074-.147-.074-.22-.148-.295-.073-.073-.147-.147-.221-.147-.074-.074-.222-.074-.296-.074H91.6zm9.675 1.919v.96h-4.062V60.78h3.989v.96h-2.807v1.403h2.437v.886h-2.437v1.55h2.88zm3.62-2.732v3.765h-1.108v-5.832h.886l3.029 3.84v-3.84h1.108v5.832h-.887z" style="fill:#fff"/></g><defs><clipPath id="a"><path fill="#fff" d="M.008.026h159.546v67.177H.008z"/></clipPath></defs></svg>